<svg id="SvgjsSvg1036" width="360" height="275" xmlns="http://www.w3.org/2000/svg" version="1.1" xmlns:xlink="http://www.w3.org/1999/xlink" xmlns:svgjs="http://svgjs.com/svgjs"><defs id="SvgjsDefs1037"><!--?xml version="1.0"?-->
<svg width="303.16129032258px" height="105.74193548387px" id="t1481820011896"><path fill="#222222" d="M25.223225806452,49.981935483871c0.60387096774194,0.97548387096775,0.60387096774194,2.2761290322581,0.046451612903226,3.3445161290323c-0.32516129032258,0.51096774193549-0.74322580645162,0.97548387096775-1.2541935483871,1.2541935483871c-0.092903225806452,0.32516129032258-0.1858064516129,0.69677419354839-0.37161290322581,1.021935483871c-0.41806451612903,0.69677419354839-1.0683870967742,1.2541935483871-1.7651612903226,1.4864516129032c-0.23225806451613,0.78967741935484-0.97548387096775,1.3470967741936-1.858064516129,1.3470967741936l-0.092903225806452,0c-4.0877419354839-0.27870967741936-8.1754838709678-0.27870967741936-12.216774193548,0.32516129032258c-0.69677419354839,0.13935483870968-1.44,0.23225806451613-2.2296774193548,0.23225806451613c-0.27870967741936,0-0.51096774193549,0-0.78967741935484-0.046451612903226c-0.23225806451613-0.046451612903226-0.46451612903226-0.13935483870968-0.69677419354839-0.27870967741936c-0.69677419354839-0.092903225806452-1.3935483870968-0.46451612903226-1.9045161290323-1.021935483871c-0.60387096774194-0.65032258064516-0.92903225806452-1.44-0.88258064516129-2.3225806451613l0.046451612903226-0.13935483870968c0.092903225806452-1.7651612903226,0.092903225806452-3.5767741935484,0.046451612903226-5.341935483871c-0.23225806451613-7.0141935483871-1.3470967741936-13.889032258065-1.8116129032258-20.856774193548c-0.046451612903226-1.021935483871,0.27870967741936-1.9045161290323,0.88258064516129-2.6012903225807c0.23225806451613-0.23225806451613,0.51096774193549-0.46451612903226,0.78967741935484-0.60387096774194c0.13935483870968-0.65032258064516,0.41806451612903-1.2077419354839,0.83612903225807-1.6722580645161c0.69677419354839-0.69677419354839,1.7187096774194-1.1148387096774,2.7870967741936-1.1148387096774c0.23225806451613,0,0.46451612903226,0,0.69677419354839,0.046451612903226c0.51096774193549,0.046451612903226,1.0683870967742,0.23225806451613,1.5793548387097,0.46451612903226c0.88258064516129,0.1858064516129,1.6722580645161-0.13935483870968,2.4154838709678,0.55741935483871c2.2296774193548,2.0903225806452,1.7187096774194,6.781935483871,1.9974193548387,9.5690322580646c0.32516129032258,3.8554838709678,0.65032258064516,7.7574193548387,0.78967741935484,11.65935483871l0,0.74322580645162l0.27870967741936-0.046451612903226l0,0.23225806451613c0-0.37161290322581,5.2490322580645-0.51096774193549,5.8064516129032-0.55741935483871c1.6722580645161-0.046451612903226,3.6232258064516-0.1858064516129,5.0632258064516,0.88258064516129c1.021935483871,0.78967741935484,1.5793548387097,1.6722580645161,1.5793548387097,2.6941935483871l0,0.41806451612903c0.092903225806452,0.092903225806452,0.1858064516129,0.23225806451613,0.23225806451613,0.32516129032258z M21.646451612903,55.370322580645c0.60387096774194,0.046451612903226,0.60387096774194-0.97548387096775,0-1.021935483871c-2.6477419354839-0.046451612903226-5.2954838709678,0.046451612903226-7.9432258064516,0.27870967741936c-1.1612903225806,0.092903225806452-2.3225806451613,0.23225806451613-3.5303225806452,0.37161290322581c-1.2077419354839,0.1858064516129-2.6012903225807,0.27870967741936-3.6696774193549,0.78967741935484c-0.046451612903226,0.046451612903226-0.046451612903226,0.092903225806452,0,0.092903225806452c1.2077419354839,0.13935483870968,2.5548387096774-0.23225806451613,3.7625806451613-0.32516129032258c1.2541935483871-0.13935483870968,2.5083870967742-0.23225806451613,3.7625806451613-0.27870967741936c2.5548387096774-0.13935483870968,5.0632258064516-0.092903225806452,7.6180645161291,0.092903225806452z M22.436129032258,53.465806451613c1.3470967741936,0.13935483870968,2.2296774193548-1.5793548387097,1.5793548387097-2.6941935483871c-0.1858064516129-0.27870967741936-0.37161290322581-0.51096774193549-0.55741935483871-0.74322580645162c0.046451612903226-0.23225806451613,0.092903225806452-0.51096774193549,0.092903225806452-0.74322580645162c0-0.69677419354839-0.51096774193549-1.2077419354839-1.021935483871-1.5793548387097c-0.55741935483871-0.41806451612903-1.3470967741936-0.51096774193549-2.0438709677419-0.55741935483871c-0.88258064516129-0.046451612903226-1.8116129032258,0-2.7406451612903,0c-2.2761290322581,0.046451612903226-4.5987096774194,0.32516129032258-6.781935483871,0.88258064516129c0-0.092903225806452,0.046451612903226-0.13935483870968,0.046451612903226-0.27870967741936l0-0.092903225806452c-0.046451612903226,0.046451612903226-0.092903225806452,0.046451612903226-0.092903225806452,0.046451612903226l-0.13935483870968-2.3690322580645c-0.092903225806452-2.461935483871-0.23225806451613-4.923870967742-0.41806451612903-7.3858064516129c-0.1858064516129-2.3225806451613-0.37161290322581-4.6916129032258-0.60387096774194-7.0606451612904c-0.23225806451613-1.9509677419355-0.27870967741936-4.1806451612903-1.5329032258065-5.8064516129032c-0.046451612903226-0.13935483870968-0.23225806451613-0.046451612903226-0.1858064516129,0.092903225806452c0.51096774193549,0.92903225806452,0.65032258064516,1.9509677419355,0.69677419354839,2.9729032258065c0.046451612903226,0.78967741935484,0.13935483870968,2.5083870967742,0.092903225806452,3.6232258064516l-0.23225806451613-1.3470967741936c-0.23225806451613-1.6722580645161-0.51096774193549-3.3445161290323-0.83612903225807-5.0167741935484c-0.37161290322581-0.27870967741936-0.78967741935484-0.41806451612903-1.2077419354839-0.51096774193549c-0.37161290322581-0.1858064516129-0.83612903225807-0.37161290322581-1.3006451612903-0.41806451612903c-1.44-0.23225806451613-2.7870967741936,0.60387096774194-2.6477419354839,2.1367741935484c0.27870967741936,4.3664516129032,0.74322580645162,8.7329032258065,1.1612903225806,13.145806451613c0.23225806451613,2.1832258064516,0.46451612903226,4.4129032258065,0.74322580645162,6.5961290322581c-0.046451612903226,1.8116129032258-0.046451612903226,3.6232258064516-0.13935483870968,5.4348387096774c0,0.46451612903226-0.046451612903226,0.88258064516129-0.046451612903226,1.3470967741936c-0.092903225806452,1.2077419354839,1.2077419354839,2.0903225806452,2.3225806451613,1.8116129032258c5.1561290322581-1.3935483870968,10.498064516129-1.858064516129,15.793548387097-1.4864516129032z M3.5767741935484,28.196129032258c-0.046451612903226-0.88258064516129-0.51096774193549-2.3225806451613,0.55741935483871-2.7406451612903c0.23225806451613-0.092903225806452,0.51096774193549-0.13935483870968,0.69677419354839-0.13935483870968c-0.092903225806452,0.13935483870968-0.1858064516129,0.32516129032258-0.23225806451613,0.46451612903226c-0.046451612903226,0.55741935483871-0.092903225806452,1.0683870967742-0.13935483870968,1.5793548387097c-0.37161290322581,1.2077419354839-0.13935483870968,2.8335483870968-0.092903225806452,3.9483870967742l0.13935483870968,6.8283870967742l0,2.5548387096774c-0.23225806451613-3.298064516129-0.41806451612903-6.5961290322581-0.69677419354839-9.9406451612904c-0.092903225806452-0.83612903225807-0.13935483870968-1.7187096774194-0.23225806451613-2.5548387096774z M36.836129032258,33.538064516129c0.13935483870968,0.65032258064516,0.23225806451613,1.3470967741936,0.37161290322581,2.0438709677419c0.37161290322581,2.2761290322581,0.51096774193549,4.6451612903226,0.69677419354839,6.9677419354839c0,2.2761290322581-0.27870967741936,4.5987096774194-1.0683870967742,6.781935483871c-0.13935483870968,0.55741935483871-0.37161290322581,1.0683870967742-0.65032258064516,1.5793548387097s-0.69677419354839,0.92903225806452-1.2541935483871,1.1148387096774c-1.9974193548387,0.60387096774194-3.6232258064516-1.3006451612903-4.3664516129032-2.8335483870968c0-0.046451612903226,0-0.046451612903226-0.046451612903226-0.046451612903226c0.46451612903226,0.32516129032258,1.1148387096774,0.46451612903226,1.6722580645161,0.32516129032258c0.1858064516129-0.046451612903226,0.37161290322581-0.13935483870968,0.51096774193549-0.23225806451613c-0.69677419354839-3.0193548387097-1.0683870967742-6.1780645161291-0.92903225806452-9.3367741935484c0.092903225806452-1.0683870967742,0.1858064516129-2.1367741935484,0.37161290322581-3.2051612903226c0.046451612903226-0.046451612903226,0.046451612903226-0.092903225806452,0.092903225806452-0.1858064516129c0.37161290322581-1.9045161290323,0.97548387096775-3.8090322580645,1.858064516129-5.5277419354839c0.1858064516129-0.32516129032258,0.37161290322581-0.69677419354839,0.65032258064516-0.88258064516129c-2.6477419354839,5.5741935483871-2.7406451612903,12.402580645161-1.44,18.441290322581c0.23225806451613-0.41806451612903,0.27870967741936-0.88258064516129,0.1858064516129-1.3935483870968c-0.55741935483871-3.4374193548387-0.60387096774194-7.0141935483871-0.1858064516129-10.451612903226c0.23225806451613-1.7651612903226,0.65032258064516-3.4838709677419,1.1612903225806-5.1561290322581c0.13935483870968-0.46451612903226,0.32516129032258-1.0683870967742,0.60387096774194-1.5793548387097l0.23225806451613,0c0.046451612903226,0,0.13935483870968,0.046451612903226,0.1858064516129,0.092903225806452c0.1858064516129,0.32516129032258,0.32516129032258,0.69677419354839,0.46451612903226,1.021935483871c0.32516129032258,0.78967741935484,0.60387096774194,1.6258064516129,0.88258064516129,2.461935483871z M35.489032258065,48.867096774194c0.69677419354839-2.0438709677419,0.65032258064516-4.1806451612903,0.60387096774194-6.363870967742c0-2.88-0.13935483870968-5.8529032258065-0.69677419354839-8.64l0-0.092903225806452c-0.32516129032258,1.1148387096774-0.51096774193549,2.1367741935484-0.65032258064516,3.1122580645161c-0.41806451612903,3.4374193548387-0.37161290322581,6.8283870967742,0.1858064516129,9.9870967741936c0.13935483870968,0.83612903225807,0.046451612903226,1.6722580645161-0.32516129032258,2.3225806451613l-0.69677419354839,1.44c0.046451612903226,0.046451612903226,0.13935483870968,0.046451612903226,0.23225806451613,0.046451612903226s0.23225806451613,0,0.32516129032258-0.046451612903226c0.046451612903226-0.046451612903226,0.23225806451613-0.092903225806452,0.46451612903226-0.41806451612903c0.1858064516129-0.46451612903226,0.37161290322581-0.88258064516129,0.55741935483871-1.3470967741936z M44.082580645162,35.628387096774c0.51096774193549,3.298064516129,0.65032258064516,6.2245161290323,0.37161290322581,9.0116129032258c-0.27870967741936,2.88-0.78967741935484,5.8529032258065-2.461935483871,8.2683870967742c-0.32516129032258,0.46451612903226-0.65032258064516,0.88258064516129-1.021935483871,1.2541935483871c-0.1858064516129,0.37161290322581-0.37161290322581,0.69677419354839-0.60387096774194,1.021935483871c-0.60387096774194,0.88258064516129-1.2541935483871,1.5793548387097-1.9509677419355,2.1832258064516c-1.1612903225806,1.1148387096774-2.5548387096774,1.8116129032258-4.0412903225807,1.9974193548387c-0.27870967741936,0.046451612903226-0.60387096774194,0.092903225806452-0.92903225806452,0.092903225806452c-0.23225806451613,0-0.51096774193549-0.046451612903226-0.74322580645162-0.046451612903226c-0.27870967741936,0.046451612903226-0.55741935483871,0.046451612903226-0.88258064516129,0.046451612903226c-1.5793548387097,0-3.298064516129-0.65032258064516-4.5987096774194-1.7187096774194c-2.1367741935484-1.8116129032258-3.4838709677419-4.5058064516129-4.0877419354839-8.2683870967742c-1.021935483871-6.5496774193549,0.092903225806452-13.052903225807,3.2051612903226-18.255483870968c0.55741935483871-1.3470967741936,1.2541935483871-2.5548387096774,2.0438709677419-3.5767741935484c0.092903225806452-0.1858064516129,0.23225806451613-0.27870967741936,0.37161290322581-0.37161290322581c0.37161290322581-0.69677419354839,0.78967741935484-1.3470967741936,1.2541935483871-1.9045161290323c0.27870967741936-0.41806451612903,0.74322580645162-0.60387096774194,1.2077419354839-0.60387096774194c0.23225806451613,0,0.46451612903226,0.046451612903226,0.69677419354839,0.13935483870968c0.41806451612903-0.27870967741936,0.83612903225807-0.46451612903226,1.3006451612903-0.55741935483871c0.74322580645162-0.27870967741936,1.4864516129032-0.46451612903226,2.1367741935484-0.46451612903226c0.32516129032258-0.046451612903226,0.65032258064516-0.046451612903226,0.92903225806452-0.046451612903226c0.74322580645162,0,1.3935483870968,0.13935483870968,1.9509677419355,0.46451612903226c0.60387096774194,0.37161290322581,1.0683870967742,0.92903225806452,1.4864516129032,1.5329032258065c0.65032258064516,0.13935483870968,1.2077419354839,0.55741935483871,1.5329032258065,1.1612903225806c0.65032258064516,1.2541935483871,1.3470967741936,2.6941935483871,1.858064516129,4.1806451612903c0.37161290322581,1.2541935483871,0.69677419354839,2.6941935483871,0.97548387096775,4.4593548387097z M42.967741935484,44.50064516129c0.32516129032258-2.9264516129032,0.13935483870968-5.8064516129032-0.32516129032258-8.6864516129033c-0.23225806451613-1.3935483870968-0.51096774193549-2.8335483870968-0.92903225806452-4.2270967741936c-0.46451612903226-1.3470967741936-1.1148387096774-2.6477419354839-1.7651612903226-3.901935483871c-0.23225806451613-0.41806451612903-0.69677419354839-0.51096774193549-1.0683870967742-0.37161290322581c-0.32516129032258-0.60387096774194-0.78967741935484-1.3935483870968-1.3935483870968-1.7651612903226c-0.55741935483871-0.32516129032258-1.3470967741936-0.32516129032258-1.9974193548387-0.1858064516129c-0.60387096774194-0.046451612903226-1.2077419354839,0.13935483870968-1.8116129032258,0.37161290322581c-1.4864516129032,0.32516129032258-2.6012903225807,1.7651612903226-3.3909677419355,3.4838709677419c-0.092903225806452,0-0.23225806451613-0.046451612903226-0.37161290322581,0c0.1858064516129-0.51096774193549,0.37161290322581-1.021935483871,0.60387096774194-1.5329032258065c0.1858064516129-0.46451612903226,0.46451612903226-0.92903225806452,0.74322580645162-1.3935483870968c0.046451612903226-0.092903225806452-0.046451612903226-0.13935483870968-0.092903225806452-0.046451612903226c-0.78967741935484,1.021935483871-1.3935483870968,2.1367741935484-1.858064516129,3.3445161290323c-0.046451612903226,0.046451612903226-0.046451612903226,0.092903225806452-0.092903225806452,0.092903225806452c-3.1122580645161,5.2025806451613-3.9483870967742,11.334193548387-3.0193548387097,17.28c0.46451612903226,2.7406451612903,1.3935483870968,5.5277419354839,3.5767741935484,7.3858064516129c1.2541935483871,1.021935483871,2.9729032258065,1.5793548387097,4.5058064516129,1.3006451612903c0.51096774193549,0.046451612903226,1.021935483871,0.046451612903226,1.5329032258065,0c1.3006451612903-0.1858064516129,2.3690322580645-0.78967741935484,3.2516129032258-1.6722580645161c0.65032258064516-0.55741935483871,1.2077419354839-1.2077419354839,1.7187096774194-1.9045161290323c1.5329032258065-2.1832258064516,1.9509677419355-5.0167741935484,2.1832258064516-7.5716129032258z M69.630967741936,53.187096774194l0.046451612903226,0.13935483870968l-0.046451612903226,0.13935483870968c0,0.51096774193549-0.092903225806452,0.97548387096775-0.1858064516129,1.44l-0.046451612903226,0c-0.092903225806452,0.23225806451613-0.23225806451613,0.46451612903226-0.41806451612903,0.60387096774194c-0.27870967741936,0.41806451612903-0.78967741935484,0.69677419354839-1.021935483871,1.1148387096774c-0.23225806451613,0.32516129032258-0.32516129032258,0.78967741935484-0.60387096774194,1.1612903225806c-0.74322580645162,1.0683870967742-1.8116129032258,1.7187096774194-2.9264516129032,1.8116129032258c-0.23225806451613,0.092903225806452-0.51096774193549,0.13935483870968-0.78967741935484,0.13935483870968c-0.46451612903226,0-0.83612903225807-0.13935483870968-1.1148387096774-0.23225806451613c-1.9045161290323-0.83612903225807-2.2761290322581-2.8335483870968-2.5548387096774-4.1806451612903l0-0.092903225806452c-0.092903225806452-0.46451612903226-0.1858064516129-0.88258064516129-0.27870967741936-1.3006451612903c-0.1858064516129-0.27870967741936-0.83612903225807-1.5329032258065-0.83612903225807-1.5329032258065l-3.0193548387097-5.341935483871s-0.1858064516129-0.32516129032258-0.41806451612903-0.78967741935484l0,0.92903225806452c0.046451612903226,1.1612903225806,0.092903225806452,2.2761290322581,0.13935483870968,3.4374193548387c0,0.23225806451613,0,0.46451612903226,0.046451612903226,0.74322580645162c0.046451612903226,0.78967741935484,0.092903225806452,1.7187096774194-0.092903225806452,2.6012903225807c-0.23225806451613,1.0683870967742-0.78967741935484,1.9045161290323-1.6258064516129,2.3225806451613c-0.27870967741936,1.2077419354839-0.97548387096775,2.0438709677419-1.9045161290323,2.3690322580645c-0.74322580645162,0.78967741935484-1.7187096774194,1.2541935483871-2.7870967741936,1.2541935483871c-0.41806451612903,0-0.78967741935484-0.046451612903226-1.1612903225806-0.1858064516129c-2.0438709677419-0.55741935483871-2.2761290322581-1.9974193548387-2.5548387096774-3.8554838709678c-0.60387096774194-4.32-0.92903225806452-8.6864516129033-1.0683870967742-13.052903225807c-0.13935483870968-2.7406451612903-0.1858064516129-5.5277419354839-0.23225806451613-8.221935483871c0-0.60387096774194-0.046451612903226-1.2077419354839-0.046451612903226-1.8116129032258c-0.046451612903226-1.2077419354839,0.23225806451613-3.0193548387097,1.3006451612903-3.7625806451613c0.41806451612903-0.32516129032258,0.97548387096775-0.97548387096775,1.0683870967742-1.5329032258065c0.092903225806452-0.60387096774194,0.65032258064516-0.88258064516129,1.1148387096774-1.1148387096774c0.092903225806452-0.32516129032258,0.23225806451613-0.60387096774194,0.46451612903226-0.88258064516129c0.55741935483871-0.78967741935484,1.44-1.2541935483871,2.3690322580645-1.2541935483871c2.3690322580645,0,4.5522580645161,2.7406451612903,4.923870967742,3.2516129032258c0.46451612903226,0.60387096774194,0.92903225806452,1.2541935483871,1.3935483870968,1.9509677419355l0.13935483870968-0.27870967741936c0.23225806451613-0.46451612903226,0.60387096774194-0.78967741935484,0.92903225806452-1.1612903225806s0.51096774193549-0.88258064516129,0.78967741935484-1.3006451612903c0.23225806451613-0.37161290322581,0.60387096774194-0.60387096774194,0.83612903225807-0.92903225806452c0.51096774193549-0.88258064516129,1.4864516129032-1.3470967741936,2.5548387096774-1.3470967741936c0.78967741935484,0,1.5793548387097,0.23225806451613,2.1832258064516,0.65032258064516l0.41806451612903,0.27870967741936l0.37161290322581,0.32516129032258l0.046451612903226,0.13935483870968c0.88258064516129,0.046451612903226,1.6258064516129,0.69677419354839,1.8116129032258,1.5793548387097c0.41806451612903,1.9974193548387,0.78967741935484,3.9948387096774,1.1148387096774,5.9922580645162c0.51096774193549,3.3909677419355,0.92903225806452,6.781935483871,1.2077419354839,10.172903225806c0.13935483870968,1.5793548387097,0.23225806451613,3.2051612903226,0.27870967741936,4.8309677419355c0.046451612903226,1.5793548387097,0,3.2051612903226,0.1858064516129,4.7845161290323z M47.938064516129,50.771612903226c0.1858064516129,1.9974193548387,0.37161290322581,1.9045161290323,0.37161290322581,1.9045161290323c-0.13935483870968-3.298064516129-0.27870967741936-7.2-0.41806451612903-10.451612903226c-0.092903225806452-3.2516129032258-0.1858064516129-6.5032258064516-0.23225806451613-9.7083870967742c-0.046451612903226-1.4864516129032-0.092903225806452-2.9729032258065-0.046451612903226-4.4593548387097c-0.32516129032258,0.74322580645162-0.41806451612903,1.6258064516129-0.37161290322581,2.4154838709678c0.046451612903226,3.3445161290323,0.092903225806452,6.6890322580645,0.23225806451613,9.9870967741936c0.13935483870968,3.3445161290323,0.1858064516129,7.0141935483871,0.46451612903226,10.312258064516z M65.682580645162,55.881290322581c0.88258064516129,0,1.6258064516129-0.55741935483871,2.1367741935484-1.2541935483871c-0.37161290322581-5.7135483870968-0.88258064516129-11.473548387097-1.8116129032258-17.14064516129c-0.41806451612903-2.7870967741936-0.88258064516129-5.6206451612903-1.6258064516129-8.3148387096775c-0.23225806451613-0.88258064516129-0.51096774193549-1.7651612903226-0.69677419354839-2.6477419354839c-0.092903225806452-0.092903225806452-0.1858064516129-0.1858064516129-0.32516129032258-0.23225806451613c-0.78967741935484-0.55741935483871-2.1832258064516-0.65032258064516-2.7406451612903,0.37161290322581c0,0.046451612903226-0.046451612903226,0.046451612903226-0.046451612903226,0.092903225806452c-0.32516129032258,0.1858064516129-0.60387096774194,0.51096774193549-0.78967741935484,0.83612903225807c-0.51096774193549,0.92903225806452-0.092903225806452,1.8116129032258,0.13935483870968,2.6941935483871c0.46451612903226,1.6722580645161,0.74322580645162,3.3445161290323,1.0683870967742,5.0167741935484c0.41806451612903,2.3690322580645,0.92903225806452,4.8309677419355,1.1612903225806,7.1535483870968c-0.23225806451613-0.46451612903226-0.46451612903226-0.92903225806452-0.74322580645162-1.44c0-0.13935483870968,0-0.27870967741936-0.092903225806452-0.46451612903226c-0.92903225806452-1.9045161290323-1.9045161290323-3.7625806451613-2.9729032258065-5.5741935483871c-1.2541935483871-2.2761290322581-2.5548387096774-4.5058064516129-4.1341935483871-6.5961290322581c-0.88258064516129-1.1612903225806-3.5303225806452-3.901935483871-4.9703225806452-1.9974193548387c-0.23225806451613,0.32516129032258-0.37161290322581,0.69677419354839-0.37161290322581,1.0683870967742c-0.32516129032258,0.046451612903226-0.65032258064516,0.23225806451613-0.88258064516129,0.41806451612903c-0.13935483870968,1.9974193548387-0.046451612903226,4.0412903225807,0,6.0851612903226c0.092903225806452,3.1587096774194,0.13935483870968,6.363870967742,0.27870967741936,9.5225806451613c0.13935483870968,3.901935483871,0.27870967741936,7.803870967742,0.51096774193549,11.705806451613c0.32516129032258,0.41806451612903,0.74322580645162,0.74322580645162,1.3006451612903,0.88258064516129c1.021935483871,0.32516129032258,2.0903225806452-0.046451612903226,2.6477419354839-0.97548387096775c1.9045161290323-0.27870967741936,1.3935483870968-2.9729032258065,1.3470967741936-4.4129032258065c-0.046451612903226-1.858064516129-0.092903225806452-3.7161290322581-0.1858064516129-5.5741935483871c0-3.1587096774194,0.046451612903226-6.3174193548387,0-9.4761290322581c0.23225806451613,0.32516129032258,0.46451612903226,0.69677419354839,0.74322580645162,1.021935483871l8.0825806451613,14.446451612903c0.092903225806452,0.51096774193549,0.1858064516129,1.021935483871,0.27870967741936,1.5793548387097c0.23225806451613,1.2077419354839,0.51096774193549,2.6477419354839,1.7651612903226,3.2051612903226c0.27870967741936,0.13935483870968,0.65032258064516,0.1858064516129,0.92903225806452,0z M68.283870967743,54.162580645161c0.046451612903226-0.65032258064516,0-1.6722580645161-0.046451612903226-1.9974193548387c0.046451612903226-8.221935483871-0.97548387096775-16.443870967742-2.6477419354839-24.526451612903c-0.092903225806452-0.46451612903226-0.65032258064516-0.46451612903226-0.88258064516129-0.1858064516129c-0.1858064516129,0.1858064516129-0.1858064516129,0.37161290322581-0.13935483870968,0.51096774193549c1.9045161290323,8.64,2.9264516129032,17.465806451613,3.5303225806452,26.338064516129c0.046451612903226-0.092903225806452,0.092903225806452-0.13935483870968,0.1858064516129-0.13935483870968z M53.14064516129,48.495483870968c0.046451612903226,0.55741935483871,0.092903225806452,1.0683870967742,0.092903225806452,1.6258064516129c0.092903225806452,0.92903225806452,0.13935483870968,1.858064516129,0.1858064516129,2.7406451612903c0.046451612903226,0.41806451612903-0.092903225806452,1.1148387096774-0.37161290322581,1.5793548387097c0.27870967741936-1.1612903225806-0.1858064516129-2.2296774193548-0.1858064516129-2.9729032258065l0.046451612903226-2.7870967741936c0.046451612903226-0.046451612903226,0.092903225806452-0.046451612903226,0.092903225806452-0.046451612903226z M97.873548387097,37.904516129032c0,0.13935483870968-0.046451612903226,0.23225806451613-0.092903225806452,0.32516129032258l0.23225806451613,0.092903225806452c-0.27870967741936,1.44-0.65032258064516,2.88-1.1612903225806,4.3664516129032c0,0.13935483870968-0.13935483870968,0.41806451612903-0.13935483870968,0.41806451612903l0,0.092903225806452l-0.046451612903226,0.092903225806452c-0.092903225806452,0.23225806451613-0.1858064516129,0.41806451612903-0.27870967741936,0.60387096774194l-0.046451612903226,0.046451612903226l-0.046451612903226,0.046451612903226c-0.60387096774194,1.021935483871-1.2541935483871,1.9045161290323-1.9045161290323,2.7406451612903c-1.6722580645161,2.6012903225807-3.5303225806452,4.6451612903226-5.6206451612903,6.2709677419355c-2.4154838709678,1.9045161290323-4.7845161290323,3.1122580645161-7.2929032258065,3.6696774193549c-1.2541935483871,0.32516129032258-2.461935483871,0.46451612903226-3.6232258064516,0.46451612903226l-0.41806451612903,0c-0.65032258064516-0.046451612903226-1.3470967741936-0.23225806451613-1.858064516129-0.65032258064516c-0.97548387096775-0.13935483870968-1.858064516129-0.41806451612903-2.6477419354839-0.88258064516129c-1.2077419354839-0.74322580645162-2.2296774193548-1.8116129032258-2.9264516129032-3.0193548387097c-1.3006451612903-1.4864516129032-2.1367741935484-3.3445161290323-2.461935483871-5.341935483871c-0.51096774193549-3.5767741935484,0.78967741935484-7.3858064516129,3.6232258064516-10.823225806452c0.55741935483871-0.92903225806452,1.2077419354839-1.8116129032258,1.9509677419355-2.6941935483871c1.7187096774194-1.9045161290323,4.4129032258065-4.4129032258065,8.0825806451613-5.7135483870968c0.32516129032258-0.41806451612903,0.74322580645162-0.69677419354839,1.3006451612903-0.83612903225807c2.9264516129032-0.74322580645162,5.341935483871-1.0683870967742,7.5716129032258-1.0683870967742c1.2541935483871,0,2.461935483871,0.092903225806452,3.5767741935484,0.32516129032258c0.88258064516129,0.1858064516129,2.7870967741936,0.55741935483871,3.6232258064516,1.9974193548387c0.27870967741936,0.46451612903226,0.51096774193549,1.3006451612903,0.13935483870968,2.3225806451613c-0.13935483870968,0.46451612903226-0.51096774193549,1.0683870967742-1.3470967741936,1.44l0,0.046451612903226c0.97548387096775,0.41806451612903,1.7187096774194,1.2541935483871,2.0438709677419,2.3225806451613c0.32516129032258,1.021935483871,0.23225806451613,2.1832258064516-0.23225806451613,3.3445161290323z M96.526451612903,37.393548387097c0.27870967741936-0.74322580645162,0.41806451612903-1.6258064516129,0.1858064516129-2.4154838709678c-0.32516129032258-1.1148387096774-1.4864516129032-1.7187096774194-2.6012903225807-1.5793548387097c-2.1832258064516,0.27870967741936-4.32,0.88258064516129-6.4567741935484,1.3935483870968s-4.2735483870968,1.0683870967742-6.363870967742,1.6722580645161c-0.092903225806452,0.046451612903226-0.1858064516129,0.046451612903226-0.23225806451613,0.092903225806452c-0.92903225806452,0.23225806451613-1.2541935483871,1.021935483871-1.1612903225806,1.7651612903226l-0.27870967741936,0.13935483870968c-1.8116129032258,0.97548387096775-0.55741935483871,3.8090322580645,1.3935483870968,3.298064516129c2.0903225806452-0.55741935483871,4.1341935483871-1.2077419354839,6.2245161290323-1.6722580645161c1.021935483871-0.23225806451613,2.0438709677419-0.41806451612903,3.0658064516129-0.65032258064516l0.1858064516129,0c-0.41806451612903,0.74322580645162-0.83612903225807,1.4864516129032-1.3006451612903,2.2296774193548c-0.97548387096775,1.5793548387097-2.0903225806452,3.0193548387097-3.4374193548387,4.32c-1.1612903225806,1.1148387096774-2.6012903225807,2.0903225806452-4.0877419354839,2.7406451612903c-0.27870967741936,0.092903225806452-0.60387096774194,0.23225806451613-0.92903225806452,0.32516129032258c-1.1148387096774,0.27870967741936-2.2296774193548,0.37161290322581-3.3445161290323,0.1858064516129c-0.1858064516129-0.046451612903226-0.41806451612903-0.092903225806452-0.60387096774194-0.13935483870968c-1.1148387096774-0.69677419354839-1.5329032258065-2.1832258064516-1.4864516129032-3.5767741935484c0-1.6722580645161,0.55741935483871-3.3909677419355,1.2541935483871-4.8774193548387c1.3935483870968-2.9729032258065,3.7625806451613-5.4812903225807,6.6425806451613-7.0606451612904c1.6722580645161-0.88258064516129,3.5303225806452-1.4864516129032,5.3883870967742-1.7651612903226c0.92903225806452-0.13935483870968,1.858064516129-0.1858064516129,2.7870967741936-0.1858064516129c1.0683870967742,0.046451612903226,2.0903225806452-0.046451612903226,3.1122580645161,0c0.32516129032258,0,0.51096774193549-0.32516129032258,0.41806451612903-0.60387096774194c0.51096774193549-0.092903225806452,0.97548387096775-0.23225806451613,1.1612903225806-0.74322580645162c0.55741935483871-1.6722580645161-1.5793548387097-2.1832258064516-2.7406451612903-2.4154838709678c-3.4374193548387-0.69677419354839-7.1070967741936-0.13935483870968-10.451612903226,0.74322580645162c-0.37161290322581,0.092903225806452-0.55741935483871,0.32516129032258-0.60387096774194,0.60387096774194c-3.1122580645161,0.97548387096775-5.8993548387097,3.0193548387097-8.0361290322581,5.4812903225807c-2.3690322580645,2.7406451612903-4.1341935483871,6.3174193548387-3.5767741935484,10.033548387097c0.23225806451613,1.8116129032258,1.021935483871,3.4374193548387,2.1832258064516,4.6916129032258c0.60387096774194,1.1148387096774,1.44,2.0438709677419,2.461935483871,2.6477419354839c0.83612903225807,0.51096774193549,1.7651612903226,0.69677419354839,2.6941935483871,0.74322580645162c0.046451612903226,0.41806451612903,0.74322580645162,0.55741935483871,1.1148387096774,0.60387096774194c1.2541935483871,0,2.461935483871-0.13935483870968,3.6696774193549-0.41806451612903c2.5083870967742-0.60387096774194,4.7380645161291-1.858064516129,6.7354838709678-3.3909677419355c2.2296774193548-1.7651612903226,4.0412903225807-3.9483870967742,5.5741935483871-6.363870967742l0.27870967741936-0.55741935483871l0.13935483870968-0.41806451612903c0.23225806451613-0.74322580645162,0.37161290322581-1.4864516129032,0.55741935483871-2.2296774193548c-0.092903225806452-0.092903225806452-0.13935483870968-0.1858064516129-0.1858064516129-0.27870967741936c-3.1122580645161,6.781935483871-9.1045161290323,10.776774193548-10.962580645161,11.65935483871c-0.97548387096775,0.51096774193549-2.0438709677419,0.92903225806452-3.1122580645161,1.2077419354839c-0.37161290322581,0.092903225806452-3.1122580645161,0.69677419354839-3.5767741935484,0.1858064516129c1.021935483871,0,2.1367741935484-0.1858064516129,3.1122580645161-0.46451612903226c0.1858064516129-0.046451612903226,0.32516129032258-0.092903225806452,0.51096774193549-0.13935483870968c1.9509677419355-0.51096774193549,3.8090322580645-1.4864516129032,5.4812903225807-2.6477419354839c1.021935483871-0.69677419354839,1.9509677419355-1.5793548387097,2.7870967741936-2.461935483871c1.6258064516129-1.4864516129032,3.0193548387097-3.2051612903226,4.1806451612903-5.1096774193549c0.92903225806452-1.44,1.6258064516129-2.9729032258065,2.2296774193548-4.5987096774194z M76.784516129033,44.732903225806c-0.046451612903226,0.23225806451613-0.046451612903226,0.51096774193549-0.046451612903226,0.78967741935484c0,1.021935483871,0.23225806451613,1.8116129032258,0.69677419354839,2.2296774193548c0.046451612903226,0,0.13935483870968,0.046451612903226,0.1858064516129,0.046451612903226c0.27870967741936,0.046451612903226,0.60387096774194,0.046451612903226,0.92903225806452,0.046451612903226c0.55741935483871,0,1.1612903225806-0.046451612903226,1.8116129032258-0.1858064516129c0.23225806451613-0.092903225806452,0.46451612903226-0.1858064516129,0.74322580645162-0.27870967741936c1.2077419354839-0.55741935483871,2.5083870967742-1.3935483870968,3.6232258064516-2.461935483871c0.37161290322581-0.37161290322581,0.69677419354839-0.69677419354839,1.021935483871-1.1148387096774c-1.1612903225806,0.32516129032258-2.4154838709678,0.65032258064516-3.5767741935484,0.97548387096775c-0.78967741935484,0.23225806451613-1.6258064516129,0.46451612903226-2.4154838709678,0.65032258064516c-0.27870967741936,0.092903225806452-0.55741935483871,0.13935483870968-0.83612903225807,0.13935483870968c-0.78967741935484,0-1.5329032258065-0.32516129032258-2.1367741935484-0.83612903225807z M123.23612903226,46.590967741936c0.32516129032258,0.51096774193549,0.60387096774194,1.1148387096774,0.88258064516129,1.6722580645161s0.55741935483871,1.0683870967742,0.65032258064516,1.6722580645161c-0.51096774193549,0.46451612903226-1.1612903225806,0.69677419354839-1.9509677419355,0.88258064516129c-0.97548387096775,0.27870967741936-1.6722580645161,0.27870967741936-2.7870967741936,0.27870967741936c-1.2077419354839-0.046451612903226-1.8116129032258-0.13935483870968-3.0193548387097-0.41806451612903c-1.5329032258065-0.32516129032258-3.0193548387097-0.78967741935484-4.4593548387097-1.3006451612903c-0.23225806451613-1.3935483870968-0.51096774193549-2.7870967741936-0.74322580645162-4.1806451612903c-0.65032258064516-3.8554838709678-1.3470967741936-7.7574193548387-2.1367741935484-11.612903225806c0.32516129032258,0.1858064516129,0.60387096774194,0.32516129032258,0.88258064516129,0.46451612903226c2.1832258064516,1.2541935483871,4.0412903225807,2.6012903225807,5.8064516129032,4.2270967741936c1.7651612903226,1.5329032258065,3.3445161290323,3.298064516129,4.7380645161291,5.1561290322581c0.74322580645162,1.021935483871,1.44,2.0903225806452,2.1367741935484,3.1587096774194z M120.07741935484,49.610322580645l0.27870967741936,0c-0.78967741935484-1.2077419354839-1.44-2.1367741935484-2.0438709677419-3.0193548387097c-1.3935483870968-1.8116129032258-2.88-3.4838709677419-4.5522580645161-4.9703225806452c-0.41806451612903-0.37161290322581-0.83612903225807-0.74322580645162-1.3006451612903-1.1148387096774c0.27870967741936,1.5329032258065,0.55741935483871,3.0193548387097,0.78967741935484,4.4593548387097c0.092903225806452,0.46451612903226,0.1858064516129,0.88258064516129,0.23225806451613,1.3470967741936c0.13935483870968,0.65032258064516,0.23225806451613,1.3006451612903,0.37161290322581,1.9974193548387c1.2077419354839,0.37161290322581,2.3225806451613,0.69677419354839,3.4374193548387,0.92903225806452c1.1612903225806,0.27870967741936,1.6722580645161,0.37161290322581,2.7870967741936,0.37161290322581z M103.54064516129,32.423225806452c0.60387096774194,1.9974193548387,2.6012903225807,10.265806451613,3.2051612903226,12.449032258065c0.1858064516129,0.78967741935484,0.46451612903226,1.5793548387097,0.74322580645162,2.3690322580645c-0.27870967741936-0.13935483870968-0.55741935483871-0.32516129032258-0.83612903225807-0.46451612903226c-0.41806451612903-1.6722580645161-0.83612903225807-3.298064516129-1.2541935483871-4.9703225806452c-0.83612903225807-3.2051612903226-1.4864516129032-6.4103225806452-2.2761290322581-9.6154838709678c-0.13935483870968-0.65032258064516,0.37161290322581,0.046451612903226,0.41806451612903,0.23225806451613z M128.76387096774,43.618064516129c1.2077419354839,2.3690322580645,2.4154838709678,5.4812903225807,1.1148387096774,8.5006451612904c-0.37161290322581,0.83612903225807-0.92903225806452,1.5793548387097-1.5793548387097,2.2296774193548l-0.046451612903226,0.046451612903226c-1.1148387096774,2.6012903225807-3.9948387096774,4.1341935483871-6.2709677419355,4.6451612903226c-1.3006451612903,0.32516129032258-2.6012903225807,0.46451612903226-3.9948387096774,0.46451612903226c-1.2077419354839,0-2.461935483871-0.092903225806452-3.8554838709678-0.32516129032258c-0.88258064516129-0.13935483870968-1.7651612903226-0.32516129032258-2.6477419354839-0.51096774193549c-0.41806451612903,0.37161290322581-0.83612903225807,0.55741935483871-1.2077419354839,0.65032258064516c-0.1858064516129,0.046451612903226-0.32516129032258,0.046451612903226-0.51096774193549,0.046451612903226l-0.13935483870968,0c-0.27870967741936,0.13935483870968-0.60387096774194,0.1858064516129-0.92903225806452,0.23225806451613l-0.32516129032258,0c-0.83612903225807,0-1.6722580645161-0.23225806451613-2.3225806451613-0.65032258064516c-1.1612903225806-0.78967741935484-1.6722580645161-1.7187096774194-1.9509677419355-2.6941935483871c-1.3006451612903-0.51096774193549-2.6012903225807-1.1148387096774-3.8554838709678-1.8116129032258c-0.92903225806452-0.51096774193549-1.6722580645161-1.3935483870968-1.9509677419355-2.461935483871c-0.32516129032258-1.1612903225806-0.1858064516129-2.3690322580645,0.37161290322581-3.3909677419355c0.32516129032258-0.51096774193549,0.74322580645162-0.97548387096775,1.2541935483871-1.3006451612903c0.092903225806452-0.32516129032258,0.23225806451613-0.65032258064516,0.37161290322581-0.97548387096775c0.37161290322581-0.60387096774194,0.88258064516129-1.1148387096774,1.4864516129032-1.4864516129032c-0.55741935483871-2.6477419354839-1.1148387096774-5.341935483871-1.6258064516129-7.9432258064516c-0.37161290322581-1.7187096774194-0.74322580645162-3.4838709677419-1.0683870967742-5.2025806451613l-0.046451612903226,0c-0.046451612903226-0.13935483870968-0.092903225806452-0.27870967741936-0.13935483870968-0.46451612903226c-0.23225806451613-0.74322580645162-0.13935483870968-1.5793548387097,0.27870967741936-2.2761290322581c0.27870967741936-0.46451612903226,0.74322580645162-0.88258064516129,1.2541935483871-1.1612903225806c0.046451612903226-0.37161290322581,0.13935483870968-0.74322580645162,0.37161290322581-1.1148387096774c0.41806451612903-0.74322580645162,1.2541935483871-1.3006451612903,2.0903225806452-1.44c0.046451612903226,0,0.046451612903226,0,0.092903225806452-0.046451612903226c0.32516129032258-0.41806451612903,0.88258064516129-0.83612903225807,1.7187096774194-1.1148387096774c0.69677419354839-0.27870967741936,1.5793548387097-0.46451612903226,2.4154838709678-0.46451612903226c0.13935483870968,0,0.27870967741936,0,0.41806451612903,0.046451612903226c3.8090322580645,0.27870967741936,6.4567741935484,2.8335483870968,8.4077419354839,4.7380645161291c2.2296774193548,2.1367741935484,4.8309677419355,4.6451612903226,7.1535483870968,7.3393548387097c0.83612903225807,0.88258064516129,1.6258064516129,1.7651612903226,2.3690322580645,2.6941935483871c1.3006451612903,1.7187096774194,2.4154838709678,3.4838709677419,3.298064516129,5.2025806451613z M128.57806451613,51.514838709678c1.021935483871-2.4154838709678,0-5.0632258064516-1.1148387096774-7.2464516129033c-0.88258064516129-1.7651612903226-1.9974193548387-3.3909677419355-3.1587096774194-4.923870967742c-0.69677419354839-0.92903225806452-1.4864516129032-1.8116129032258-2.2761290322581-2.6477419354839c-2.2296774193548-2.5548387096774-4.6451612903226-4.923870967742-7.0606451612904-7.2464516129033c-2.1832258064516-2.0903225806452-4.4129032258065-4.1341935483871-7.5251612903226-4.3664516129032c-1.0683870967742-0.092903225806452-3.2051612903226,0.27870967741936-3.6232258064516,1.4864516129032c-0.1858064516129,0-0.41806451612903,0.046451612903226-0.65032258064516,0.092903225806452c-0.83612903225807,0.13935483870968-1.5329032258065,0.92903225806452-1.2541935483871,1.858064516129c0.046451612903226,0.13935483870968,0.13935483870968,0.32516129032258,0.1858064516129,0.51096774193549c1.0683870967742,5.1561290322581,2.1367741935484,10.312258064516,3.1587096774194,15.514838709677c0.13935483870968,0.55741935483871,0.23225806451613,1.0683870967742,0.32516129032258,1.6258064516129c-0.046451612903226-0.046451612903226-0.13935483870968-0.092903225806452-0.1858064516129-0.13935483870968c-1.3006451612903-0.74322580645162-3.0658064516129-0.27870967741936-3.8090322580645,1.021935483871c-0.78967741935484,1.3006451612903-0.37161290322581,3.1122580645161,0.97548387096775,3.8554838709678c1.44,0.74322580645162,2.88,1.3935483870968,4.3664516129032,1.9974193548387c0.23225806451613,1.1148387096774,0.55741935483871,1.858064516129,1.5793548387097,2.5548387096774c0.46451612903226,0.32516129032258,1.1148387096774,0.41806451612903,1.7187096774194,0.37161290322581c0.32516129032258,0,0.55741935483871-0.13935483870968,0.74322580645162-0.32516129032258c0.1858064516129,0.092903225806452,0.41806451612903,0.13935483870968,0.65032258064516,0.092903225806452c0.37161290322581-0.092903225806452,0.69677419354839-0.41806451612903,0.88258064516129-0.83612903225807c1.1148387096774,0.27870967741936,2.2761290322581,0.51096774193549,3.4374193548387,0.69677419354839c2.461935483871,0.37161290322581,4.8774193548387,0.46451612903226,7.2929032258065-0.092903225806452c2.0903225806452-0.51096774193549,4.4593548387097-1.8116129032258,5.341935483871-3.8554838709678z M155.05548387097,52.722580645161c0.1858064516129,1.3935483870968,0.092903225806452,3.5767741935484-1.6722580645161,4.5058064516129c-0.65032258064516,2.6477419354839-3.2051612903226,3.3445161290323-4.9703225806452,1.858064516129c-0.46451612903226-0.46451612903226-1.6722580645161-2.1832258064516-1.9045161290323-2.6477419354839c-0.97548387096775-1.9509677419355-1.858064516129-5.8529032258065-2.5083870967742-8.4541935483871c-0.65032258064516,3.4838709677419-0.092903225806452,5.6670967741936-1.9974193548387,6.1316129032258c-0.78967741935484,2.7870967741936-1.2541935483871,1.7651612903226-1.6258064516129,2.3225806451613c-0.046451612903226,0-1.3470967741936,3.901935483871-5.1096774193549,2.88c-2.1367741935484-0.60387096774194-3.298064516129-2.6012903225807-2.9729032258065-4.9703225806452c0.27870967741936-2.0903225806452,0.65032258064516-4.0877419354839,1.0683870967742-6.0387096774194c-1.3935483870968-1.5329032258065-2.88-2.6012903225807-2.6477419354839-4.9703225806452c0.23225806451613-2.1367741935484,1.7187096774194-3.0193548387097,1.8116129032258-3.2051612903226c0.37161290322581-0.51096774193549,0.41806451612903-1.9045161290323,3.2051612903226-3.2051612903226c0.60387096774194-2.5083870967742,1.1148387096774-3.9948387096774,2.1832258064516-6.5961290322581c0.51096774193549-1.2077419354839,1.1612903225806-2.8335483870968,2.3225806451613-3.8554838709678c0.51096774193549-0.69677419354839,1.44-3.3909677419355,4.4129032258065-3.3909677419355c1.0683870967742,0,2.1367741935484,0.55741935483871,2.8335483870968,1.3470967741936c1.4864516129032,0.37161290322581,2.6012903225807,1.5793548387097,2.88,3.1587096774194c0.60387096774194,0.1858064516129,1.021935483871,0.74322580645162,1.0683870967742,1.3935483870968c0.046451612903226,2.461935483871,0.13935483870968,5.1096774193549,0.41806451612903,7.803870967742c2.8335483870968,0.88258064516129,4.3664516129032,5.1096774193549,1.7187096774194,7.7574193548387c0.46451612903226,2.1832258064516,1.2077419354839,5.8529032258065,1.4864516129032,8.1754838709678z M149.8064516129,53.790967741936c1.021935483871,3.2051612903226,4.32,3.1587096774194,3.8090322580645-0.88258064516129c-0.32516129032258-2.6941935483871-1.1148387096774-6.2709677419355-1.6722580645161-8.9187096774194c2.461935483871-1.5793548387097,1.9509677419355-5.5741935483871-1.44-5.9922580645162c-0.32516129032258-2.6941935483871-0.55741935483871-9.4296774193549-0.60387096774194-8.9651612903226c-0.1858064516129,1.4864516129032-0.27870967741936,3.0193548387097-0.32516129032258,4.5522580645161c-0.046451612903226,0-0.046451612903226,0-0.092903225806452-0.046451612903226c-0.1858064516129-1.7651612903226-0.37161290322581-3.5767741935484-0.51096774193549-5.341935483871c-0.092903225806452-1.44-1.0683870967742-2.3225806451613-2.3690322580645-2.4154838709678c-0.32516129032258-0.74322580645162-1.2077419354839-1.2541935483871-1.9974193548387-1.2077419354839c-2.2761290322581,0.046451612903226-3.1587096774194,2.7870967741936-3.9483870967742,4.5522580645161c-1.1612903225806,2.7406451612903-1.9045161290323,5.6670967741936-2.5083870967742,8.5935483870968c-5.341935483871,0.83612903225807-5.341935483871,5.6670967741936-2.461935483871,6.4103225806452c0.046451612903226,0.13935483870968,0,0.27870967741936-0.046451612903226,0.37161290322581c0.37161290322581,0,0.78967741935484-0.046451612903226,1.2077419354839-0.092903225806452c-0.65032258064516,2.6012903225807-1.1148387096774,5.2025806451613-1.4864516129032,7.8503225806452c-0.55741935483871,4.1806451612903,4.9703225806452,4.7845161290323,5.341935483871,0.74322580645162l0.23225806451613-1.9974193548387s0.78967741935484-4.5522580645161,1.3470967741936-6.7354838709678l0.41806451612903,0c-0.83612903225807,2.6012903225807-1.2541935483871,5.341935483871-1.4864516129032,8.0361290322581c-0.046451612903226,0.51096774193549,0.74322580645162,0.51096774193549,0.74322580645162,0c0.1858064516129-2.7406451612903,0.69677419354839-5.3883870967742,1.3470967741936-8.0361290322581l3.4838709677419-0.046451612903226c0.37161290322581,1.5793548387097,2.1367741935484,9.2903225806452,3.0193548387097,9.5690322580646z M143.9535483871,38.461935483871c0.37161290322581-1.2077419354839,0.83612903225807-2.461935483871,1.3006451612903-3.6232258064516c0.13935483870968,1.1612903225806,0.32516129032258,2.3225806451613,0.51096774193549,3.4374193548387c-0.60387096774194,0.046451612903226-1.2077419354839,0.092903225806452-1.8116129032258,0.1858064516129z M186.08516129032,25.269677419355c0.32516129032258,0.55741935483871,0.51096774193549,1.2077419354839,0.46451612903226,1.858064516129c-0.046451612903226,0.88258064516129-0.46451612903226,1.6722580645161-1.0683870967742,2.1832258064516c-0.046451612903226,0.74322580645162-0.32516129032258,2.0903225806452-1.5793548387097,2.9264516129032c-0.046451612903226,0.046451612903226-0.092903225806452,0.092903225806452-0.1858064516129,0.13935483870968c-0.1858064516129,0.69677419354839-0.55741935483871,1.5329032258065-1.44,2.1367741935484c-0.23225806451613,0.1858064516129-0.51096774193549,0.32516129032258-0.88258064516129,0.41806451612903c-0.1858064516129,0.13935483870968-0.46451612903226,0.23225806451613-0.69677419354839,0.27870967741936c-1.3470967741936,0.27870967741936-2.7870967741936,0.51096774193549-4.2735483870968,0.78967741935484l0,2.8335483870968l0,2.5083870967742c0,1.9509677419355,0.046451612903226,3.9948387096774,0,5.9922580645162c0.092903225806452,1.3006451612903,0.13935483870968,3.0658064516129,0.23225806451613,4.8309677419355l0,0.092903225806452l-0.046451612903226,0.092903225806452c-0.046451612903226,0.88258064516129-0.23225806451613,2.7406451612903-1.6258064516129,3.8554838709678l-0.32516129032258,0.23225806451613c-0.23225806451613,0.74322580645162-0.60387096774194,1.4864516129032-1.3006451612903,2.0438709677419l-2.1367741935484,0.78967741935484c-0.37161290322581,0.092903225806452-0.78967741935484,0.1858064516129-1.1612903225806,0.1858064516129s-0.69677419354839-0.046451612903226-0.97548387096775-0.13935483870968c-3.2516129032258-0.97548387096775-3.4374193548387-4.6451612903226-3.5303225806452-5.8529032258065c-0.13935483870968-2.6941935483871-0.046451612903226-5.2954838709678,0.046451612903226-7.2929032258065l0.13935483870968-3.2051612903226c0.092903225806452-1.3006451612903,0.13935483870968-2.6477419354839,0.23225806451613-3.9948387096774l0.046451612903226-1.9974193548387l-0.32516129032258,0c-1.2541935483871-0.046451612903226-2.5548387096774-0.046451612903226-3.901935483871-0.1858064516129c-1.0683870967742-0.13935483870968-2.3690322580645-0.32516129032258-3.4374193548387-1.021935483871c-0.78967741935484-0.46451612903226-1.44-1.2077419354839-1.858064516129-2.0438709677419c-1.2541935483871-0.92903225806452-1.858064516129-2.5548387096774-1.44-4.0877419354839c0.23225806451613-0.92903225806452,0.83612903225807-1.7187096774194,1.6258064516129-2.2296774193548l0-0.046451612903226c0.32516129032258-1.2077419354839,1.2541935483871-2.1832258064516,2.3225806451613-2.6012903225807c0.23225806451613-0.60387096774194,0.83612903225807-1.021935483871,1.4864516129032-1.021935483871l0.046451612903226,0l0.046451612903226,0c2.461935483871,0.13935483870968,4.9703225806452,0.23225806451613,7.4787096774194,0.23225806451613c3.7625806451613,0,7.7109677419355-0.1858064516129,11.705806451613-0.51096774193549c0.55741935483871-0.092903225806452,1.1148387096774-0.1858064516129,1.5793548387097-0.1858064516129l0.092903225806452,0c0.1858064516129-0.046451612903226,0.37161290322581-0.046451612903226,0.65032258064516-0.046451612903226l0.046451612903226,0c0.74322580645162-0.092903225806452,1.3470967741936-0.13935483870968,1.9509677419355-0.1858064516129c0.046451612903226-0.046451612903226,0.13935483870968-0.046451612903226,0.23225806451613-0.046451612903226c0.92903225806452,0,1.7187096774194,0.74322580645162,1.8116129032258,1.7187096774194c0,0.1858064516129,0,0.37161290322581-0.046451612903226,0.55741935483871z M184.22709677419,28.381935483871c1.1148387096774-0.46451612903226,1.1612903225806-2.2296774193548,0.092903225806452-2.8335483870968c-0.092903225806452-0.092903225806452-0.1858064516129-0.13935483870968-0.27870967741936-0.1858064516129c0.092903225806452-0.046451612903226,0.23225806451613-0.046451612903226,0.32516129032258-0.046451612903226c0.46451612903226-0.092903225806452,0.32516129032258-0.88258064516129-0.092903225806452-0.83612903225807c-0.69677419354839,0.092903225806452-1.3935483870968,0.13935483870968-2.0903225806452,0.23225806451613c-0.27870967741936-0.046451612903226-0.55741935483871,0-0.78967741935484,0c-0.46451612903226,0.046451612903226-0.92903225806452,0.092903225806452-1.44,0.1858064516129c-6.4567741935484,0.55741935483871-12.96,0.69677419354839-19.463225806452,0.32516129032258c-0.13935483870968-0.046451612903226-0.1858064516129,0.23225806451613-0.046451612903226,0.23225806451613c2.5083870967742,0.41806451612903,5.0167741935484,0.69677419354839,7.5251612903226,0.83612903225807c0,0.046451612903226-0.046451612903226,0.092903225806452-0.046451612903226,0.13935483870968c-2.5548387096774,0-5.0632258064516-0.1858064516129-7.6180645161291-0.41806451612903c-1.021935483871-0.092903225806452-1.9509677419355,0.78967741935484-2.2296774193548,1.7187096774194c-0.27870967741936,1.1148387096774,0.27870967741936,2.2296774193548,1.2077419354839,2.7406451612903c0.27870967741936,0.74322580645162,0.88258064516129,1.3935483870968,1.4864516129032,1.8116129032258c0.83612903225807,0.51096774193549,1.858064516129,0.65032258064516,2.8335483870968,0.78967741935484c1.2077419354839,0.092903225806452,2.461935483871,0.13935483870968,3.7161290322581,0.13935483870968l1.8116129032258,0l0,1.4864516129032l-0.092903225806452,2.0438709677419c-0.092903225806452,2.4154838709678-0.23225806451613,4.8309677419355-0.37161290322581,7.2c-0.092903225806452,2.3690322580645-0.13935483870968,4.7845161290323,0,7.1535483870968c0.092903225806452,1.8116129032258,0.51096774193549,3.9483870967742,2.461935483871,4.5522580645161c0.97548387096775,0.27870967741936,2.1367741935484-0.27870967741936,2.461935483871-1.3006451612903c0.32516129032258-0.92903225806452,0.37161290322581-2.2296774193548,0.55741935483871-3.0658064516129l0,1.7651612903226c-0.046451612903226,0.65032258064516-0.046451612903226,1.3006451612903-0.092903225806452,1.9509677419355l0,0.092903225806452c0.83612903225807-0.65032258064516,1.021935483871-1.7651612903226,1.1148387096774-2.88c-0.046451612903226-1.6258064516129-0.13935483870968-3.2516129032258-0.1858064516129-4.8774193548387c0-2.8335483870968-0.046451612903226-5.6670967741936-0.046451612903226-8.5006451612904c0-2.0438709677419,0.046451612903226-4.0877419354839,0.046451612903226-6.1316129032258c2.3690322580645-0.32516129032258,4.6916129032258-0.74322580645162,7.0606451612904-1.2077419354839c0.13935483870968,0,0.23225806451613-0.092903225806452,0.32516129032258-0.1858064516129c0.23225806451613-0.046451612903226,0.51096774193549-0.13935483870968,0.69677419354839-0.27870967741936c0.74322580645162-0.51096774193549,0.92903225806452-1.3470967741936,0.97548387096775-2.1832258064516c0.092903225806452-0.13935483870968,0.13935483870968-0.27870967741936,0.1858064516129-0.46451612903226z M163.60258064516,31.958709677419c-1.1148387096774-0.046451612903226-2.3225806451613-0.37161290322581-3.0658064516129-1.0683870967742c1.8116129032258,0.55741935483871,3.6696774193549,0.88258064516129,5.5277419354839,1.0683870967742c-0.83612903225807,0.046451612903226-1.6722580645161,0.046451612903226-2.461935483871,0z M208.8464516129,52.722580645161c0.1858064516129,1.3935483870968,0.092903225806452,3.5767741935484-1.6722580645161,4.5058064516129c-0.65032258064516,2.6477419354839-3.2051612903226,3.3445161290323-4.9703225806452,1.858064516129c-0.46451612903226-0.46451612903226-1.6722580645161-2.1832258064516-1.9045161290323-2.6477419354839c-0.97548387096775-1.9509677419355-1.858064516129-5.8529032258065-2.5083870967742-8.4541935483871c-0.65032258064516,3.4838709677419-0.092903225806452,5.6670967741936-1.9974193548387,6.1316129032258c-0.78967741935484,2.7870967741936-1.2541935483871,1.7651612903226-1.6258064516129,2.3225806451613c-0.046451612903226,0-1.3470967741936,3.901935483871-5.1096774193549,2.88c-2.1367741935484-0.60387096774194-3.298064516129-2.6012903225807-2.9729032258065-4.9703225806452c0.27870967741936-2.0903225806452,0.65032258064516-4.0877419354839,1.0683870967742-6.0387096774194c-1.3935483870968-1.5329032258065-2.88-2.6012903225807-2.6477419354839-4.9703225806452c0.23225806451613-2.1367741935484,1.7187096774194-3.0193548387097,1.8116129032258-3.2051612903226c0.37161290322581-0.51096774193549,0.41806451612903-1.9045161290323,3.2051612903226-3.2051612903226c0.60387096774194-2.5083870967742,1.1148387096774-3.9948387096774,2.1832258064516-6.5961290322581c0.51096774193549-1.2077419354839,1.1612903225806-2.8335483870968,2.3225806451613-3.8554838709678c0.51096774193549-0.69677419354839,1.44-3.3909677419355,4.4129032258065-3.3909677419355c1.0683870967742,0,2.1367741935484,0.55741935483871,2.8335483870968,1.3470967741936c1.4864516129032,0.37161290322581,2.6012903225807,1.5793548387097,2.88,3.1587096774194c0.60387096774194,0.1858064516129,1.021935483871,0.74322580645162,1.0683870967742,1.3935483870968c0.046451612903226,2.461935483871,0.13935483870968,5.1096774193549,0.41806451612903,7.803870967742c2.8335483870968,0.88258064516129,4.3664516129032,5.1096774193549,1.7187096774194,7.7574193548387c0.46451612903226,2.1832258064516,1.2077419354839,5.8529032258065,1.4864516129032,8.1754838709678z M203.59741935484,53.790967741936c1.021935483871,3.2051612903226,4.32,3.1587096774194,3.8090322580645-0.88258064516129c-0.32516129032258-2.6941935483871-1.1148387096774-6.2709677419355-1.6722580645161-8.9187096774194c2.461935483871-1.5793548387097,1.9509677419355-5.5741935483871-1.44-5.9922580645162c-0.32516129032258-2.6941935483871-0.55741935483871-9.4296774193549-0.60387096774194-8.9651612903226c-0.1858064516129,1.4864516129032-0.27870967741936,3.0193548387097-0.32516129032258,4.5522580645161c-0.046451612903226,0-0.046451612903226,0-0.092903225806452-0.046451612903226c-0.1858064516129-1.7651612903226-0.37161290322581-3.5767741935484-0.51096774193549-5.341935483871c-0.092903225806452-1.44-1.0683870967742-2.3225806451613-2.3690322580645-2.4154838709678c-0.32516129032258-0.74322580645162-1.2077419354839-1.2541935483871-1.9974193548387-1.2077419354839c-2.2761290322581,0.046451612903226-3.1587096774194,2.7870967741936-3.9483870967742,4.5522580645161c-1.1612903225806,2.7406451612903-1.9045161290323,5.6670967741936-2.5083870967742,8.5935483870968c-5.341935483871,0.83612903225807-5.341935483871,5.6670967741936-2.461935483871,6.4103225806452c0.046451612903226,0.13935483870968,0,0.27870967741936-0.046451612903226,0.37161290322581c0.37161290322581,0,0.78967741935484-0.046451612903226,1.2077419354839-0.092903225806452c-0.65032258064516,2.6012903225807-1.1148387096774,5.2025806451613-1.4864516129032,7.8503225806452c-0.55741935483871,4.1806451612903,4.9703225806452,4.7845161290323,5.341935483871,0.74322580645162l0.23225806451613-1.9974193548387s0.78967741935484-4.5522580645161,1.3470967741936-6.7354838709678l0.41806451612903,0c-0.83612903225807,2.6012903225807-1.2541935483871,5.341935483871-1.4864516129032,8.0361290322581c-0.046451612903226,0.51096774193549,0.74322580645162,0.51096774193549,0.74322580645162,0c0.1858064516129-2.7406451612903,0.69677419354839-5.3883870967742,1.3470967741936-8.0361290322581l3.4838709677419-0.046451612903226c0.37161290322581,1.5793548387097,2.1367741935484,9.2903225806452,3.0193548387097,9.5690322580646z M197.74451612903,38.461935483871c0.37161290322581-1.2077419354839,0.83612903225807-2.461935483871,1.3006451612903-3.6232258064516c0.13935483870968,1.1612903225806,0.32516129032258,2.3225806451613,0.51096774193549,3.4374193548387c-0.60387096774194,0.046451612903226-1.2077419354839,0.092903225806452-1.8116129032258,0.1858064516129z M217.71870967742,51.97935483871c0.55741935483871,0.74322580645162,0.69677419354839,1.6722580645161,0.32516129032258,2.5548387096774c0,0.046451612903226-0.046451612903226,0.092903225806452-0.046451612903226,0.1858064516129c-0.23225806451613,0.69677419354839-0.69677419354839,1.3470967741936-1.3006451612903,1.7651612903226c-0.51096774193549,1.4864516129032-1.9509677419355,2.5548387096774-3.5303225806452,2.5548387096774c-0.69677419354839,0-1.3935483870968-0.23225806451613-1.9974193548387-0.65032258064516c-0.55741935483871-0.1858064516129-1.021935483871-0.65032258064516-1.2077419354839-1.2541935483871c-0.046451612903226-0.13935483870968-0.092903225806452-0.32516129032258-0.13935483870968-0.46451612903226c-0.13935483870968-0.41806451612903-0.1858064516129-0.83612903225807-0.1858064516129-1.2541935483871c0-0.65032258064516,0.1858064516129-1.2541935483871,0.51096774193549-1.7651612903226c0.23225806451613-0.32516129032258,0.51096774193549-0.60387096774194,0.83612903225807-0.88258064516129c0.046451612903226,0,0.046451612903226,0,0.092903225806452-0.046451612903226c0.092903225806452-0.27870967741936,0.1858064516129-0.60387096774194,0.37161290322581-0.83612903225807c0.23225806451613-0.37161290322581,0.51096774193549-0.65032258064516,0.83612903225807-0.88258064516129c0.092903225806452-0.092903225806452,0.1858064516129-0.13935483870968,0.27870967741936-0.23225806451613c0.55741935483871-0.46451612903226,1.2077419354839-0.69677419354839,1.9045161290323-0.69677419354839l0.092903225806452,0c0.092903225806452,0,0.23225806451613,0,0.32516129032258,0.046451612903226c1.2077419354839,0.046451612903226,2.2761290322581,0.78967741935484,2.8335483870968,1.858064516129z M216.46451612903,52.769032258065c-0.27870967741936-0.65032258064516-0.92903225806452-1.1612903225806-1.7187096774194-1.2077419354839l-0.23225806451613,0c-0.41806451612903-0.046451612903226-0.74322580645162,0.13935483870968-1.021935483871,0.37161290322581c-0.092903225806452,0.046451612903226-0.1858064516129,0.13935483870968-0.27870967741936,0.1858064516129c-0.1858064516129,0.13935483870968-0.37161290322581,0.32516129032258-0.55741935483871,0.55741935483871c-0.1858064516129,0.32516129032258-0.27870967741936,0.65032258064516-0.27870967741936,0.97548387096775c0,0.27870967741936,0.046451612903226,0.55741935483871,0.1858064516129,0.78967741935484c0,0.1858064516129,0.046451612903226,0.32516129032258,0.092903225806452,0.46451612903226c0.092903225806452,0.23225806451613,0.27870967741936,0.32516129032258,0.46451612903226,0.32516129032258c0.046451612903226,0.046451612903226,0.092903225806452,0.092903225806452,0.1858064516129,0.13935483870968c1.1612903225806,0.88258064516129,2.88,0.23225806451613,3.298064516129-1.1148387096774c0-0.046451612903226,0.046451612903226-0.13935483870968,0.046451612903226-0.1858064516129c0.1858064516129-0.41806451612903,0.1858064516129-0.88258064516129-0.1858064516129-1.3006451612903z M225.75483870968,30.054193548387c-0.55741935483871-0.046451612903226-1.0683870967742-0.13935483870968-1.5793548387097-0.32516129032258c-0.32516129032258-0.092903225806452-0.60387096774194-0.27870967741936-0.88258064516129-0.51096774193549c-0.37161290322581-0.32516129032258-0.32516129032258-0.65032258064516-0.13935483870968-1.0683870967742c0.1858064516129-0.32516129032258,0.37161290322581-0.60387096774194,0.60387096774194-0.88258064516129c-0.46451612903226,1.0683870967742,0.046451612903226,2.1367741935484,1.3935483870968,2.4154838709678c1.0683870967742,0.1858064516129,1.6722580645161,0.092903225806452,2.2296774193548-0.046451612903226c0.046451612903226,0-0.27870967741936,0.41806451612903-1.6258064516129,0.41806451612903z M231.74709677419,33.445161290323c-0.13935483870968,6.5496774193549,0.23225806451613,13.145806451613,1.0683870967742,19.556129032258c0.092903225806452,0.55741935483871-0.046451612903226,1.0683870967742-0.41806451612903,1.44c-0.27870967741936,0.37161290322581-0.74322580645162,0.55741935483871-1.2077419354839,0.60387096774194l0,0.23225806451613c0.092903225806452,0.55741935483871-0.046451612903226,1.0683870967742-0.41806451612903,1.44c-0.32516129032258,0.37161290322581-0.83612903225807,0.60387096774194-1.3935483870968,0.60387096774194l-0.046451612903226,0c-0.23225806451613,0.51096774193549-0.60387096774194,0.97548387096775-1.1612903225806,1.2541935483871s-1.2077419354839,0.41806451612903-1.858064516129,0.41806451612903c-1.1612903225806,0-2.3225806451613-0.46451612903226-3.1587096774194-1.3006451612903c-0.27870967741936-0.13935483870968-0.55741935483871-0.32516129032258-0.78967741935484-0.55741935483871c-1.3006451612903-1.1612903225806-1.4864516129032-2.7870967741936-1.6258064516129-4.0877419354839c0-0.13935483870968,0-0.27870967741936-0.046451612903226-0.41806451612903c-0.46451612903226-3.8554838709678-0.69677419354839-7.3393548387097-0.65032258064516-10.544516129032l0-0.92903225806452c0-1.3935483870968,0-2.8335483870968,0.1858064516129-4.2735483870968c0.13935483870968-1.3006451612903,0.55741935483871-2.3225806451613,1.2077419354839-3.0658064516129c0.092903225806452-0.092903225806452,0.13935483870968-0.13935483870968,0.1858064516129-0.23225806451613c-0.51096774193549-0.23225806451613-1.7187096774194-0.83612903225807-2.0438709677419-1.9974193548387c-0.23225806451613-0.92903225806452,0.046451612903226-1.9045161290323,0.78967741935484-2.9729032258065c0.32516129032258-0.37161290322581,0.60387096774194-0.69677419354839,0.97548387096775-1.021935483871c0.13935483870968-0.41806451612903,0.37161290322581-0.78967741935484,0.65032258064516-1.2541935483871c0.41806451612903-0.55741935483871,0.88258064516129-1.021935483871,1.3935483870968-1.3935483870968c0.13935483870968-0.13935483870968,0.27870967741936-0.23225806451613,0.46451612903226-0.37161290322581c1.3470967741936-0.88258064516129,2.6941935483871-1.3470967741936,3.9483870967742-1.3470967741936c0.46451612903226,0,0.88258064516129,0.046451612903226,1.3006451612903,0.13935483870968c1.8116129032258,0.46451612903226,3.0658064516129,1.5793548387097,3.6232258064516,3.1587096774194c0.37161290322581,1.0683870967742,0,2.2296774193548-1.021935483871,2.9729032258065c-0.13935483870968,0.092903225806452-0.27870967741936,0.1858064516129-0.46451612903226,0.27870967741936c-0.046451612903226,0.51096774193549-0.23225806451613,0.97548387096775-0.51096774193549,1.3470967741936c0.092903225806452,0.27870967741936,0.1858064516129,0.55741935483871,0.1858064516129,0.83612903225807l0,0.092903225806452l0.41806451612903,0.27870967741936c0.27870967741936,0.32516129032258,0.46451612903226,0.69677419354839,0.41806451612903,1.1148387096774z M222.64258064516,28.93935483871c0.092903225806452,0.46451612903226,0.74322580645162,0.83612903225807,1.1612903225806,0.97548387096775c0.69677419354839,0.27870967741936,1.3935483870968,0.37161290322581,2.1367741935484,0.37161290322581c0.88258064516129,0,1.9045161290323-0.23225806451613,2.461935483871-0.88258064516129c0.88258064516129-0.1858064516129,1.7651612903226-0.60387096774194,2.461935483871-1.1148387096774c0.37161290322581-0.27870967741936,0.69677419354839-0.74322580645162,0.51096774193549-1.2541935483871c-0.46451612903226-1.2077419354839-1.3935483870968-1.9045161290323-2.6477419354839-2.2296774193548c-1.44-0.37161290322581-2.88,0.1858064516129-4.0877419354839,1.021935483871c-0.092903225806452,0.046451612903226-0.1858064516129,0.13935483870968-0.27870967741936,0.23225806451613c-0.46451612903226,0.32516129032258-0.83612903225807,0.69677419354839-1.1612903225806,1.1612903225806s-0.74322580645162,1.1148387096774-0.55741935483871,1.7187096774194z M230.58580645161,53.28c0.092903225806452,0.46451612903226,0.83612903225807,0.41806451612903,0.78967741935484-0.046451612903226c-0.88258064516129-6.5961290322581-1.2541935483871-13.192258064516-1.0683870967742-19.834838709678c0-0.046451612903226-0.32516129032258,0-0.32516129032258,0.092903225806452c-0.1858064516129,3.298064516129-0.1858064516129,8.1754838709678-0.046451612903226,11.473548387097c-0.092903225806452,0-0.23225806451613-1.6258064516129-0.32516129032258-1.5793548387097c-0.046451612903226-0.41806451612903-0.092903225806452-0.83612903225807-0.092903225806452-1.1612903225806c-0.046451612903226-1.7187096774194-0.13935483870968-3.4374193548387-0.13935483870968-5.1096774193549c0-1.7187096774194,0.092903225806452-3.3909677419355,0.092903225806452-5.1096774193549c-0.046451612903226-0.41806451612903-0.41806451612903-0.60387096774194-0.74322580645162-0.55741935483871c-0.74322580645162-1.858064516129-3.1122580645161-0.13935483870968-4.0877419354839,0.51096774193549c-0.13935483870968,0.13935483870968-0.27870967741936,0.27870967741936-0.37161290322581,0.46451612903226c-0.55741935483871,0.55741935483871-0.83612903225807,1.44-0.97548387096775,2.3225806451613c-0.1858064516129,1.6722580645161-0.13935483870968,3.3909677419355-0.13935483870968,5.0632258064516c-0.046451612903226,3.4838709677419,0.1858064516129,6.9212903225807,0.60387096774194,10.358709677419c0.1858064516129,1.3006451612903,0.23225806451613,2.6941935483871,1.2077419354839,3.6232258064516c0.23225806451613,0.1858064516129,0.46451612903226,0.32516129032258,0.69677419354839,0.41806451612903c0.046451612903226,0.046451612903226,0.046451612903226,0.092903225806452,0.092903225806452,0.13935483870968c0.88258064516129,0.88258064516129,2.2761290322581,1.1612903225806,3.3909677419355,0.60387096774194c0.41806451612903-0.1858064516129,0.51096774193549-0.55741935483871,0.46451612903226-0.88258064516129c0.37161290322581-0.13935483870968,0.74322580645162-0.41806451612903,0.97548387096775-0.78967741935484z M225.42967741936,34.327741935484c0-0.092903225806452,0.1858064516129-0.37161290322581,0.32516129032258-0.46451612903226l0.046451612903226,0c-0.51096774193549,1.4864516129032-0.60387096774194,3.2051612903226-0.60387096774194,4.7845161290323c-0.046451612903226,2.0903225806452,0,4.1806451612903,0,6.2709677419355l-0.13935483870968,0c-0.13935483870968-1.1148387096774-0.27870967741936-2.2296774193548-0.37161290322581-3.3445161290323l0-0.092903225806452l0-0.46451612903226c0.092903225806452-2.1367741935484,0.046451612903226-4.5987096774194,0.74322580645162-6.6890322580645z M245.86838709677,33.538064516129c0.13935483870968,0.65032258064516,0.23225806451613,1.3470967741936,0.37161290322581,2.0438709677419c0.37161290322581,2.2761290322581,0.51096774193549,4.6451612903226,0.69677419354839,6.9677419354839c0,2.2761290322581-0.27870967741936,4.5987096774194-1.0683870967742,6.781935483871c-0.13935483870968,0.55741935483871-0.37161290322581,1.0683870967742-0.65032258064516,1.5793548387097s-0.69677419354839,0.92903225806452-1.2541935483871,1.1148387096774c-1.9974193548387,0.60387096774194-3.6232258064516-1.3006451612903-4.3664516129032-2.8335483870968c0-0.046451612903226,0-0.046451612903226-0.046451612903226-0.046451612903226c0.46451612903226,0.32516129032258,1.1148387096774,0.46451612903226,1.6722580645161,0.32516129032258c0.1858064516129-0.046451612903226,0.37161290322581-0.13935483870968,0.51096774193549-0.23225806451613c-0.69677419354839-3.0193548387097-1.0683870967742-6.1780645161291-0.92903225806452-9.3367741935484c0.092903225806452-1.0683870967742,0.1858064516129-2.1367741935484,0.37161290322581-3.2051612903226c0.046451612903226-0.046451612903226,0.046451612903226-0.092903225806452,0.092903225806452-0.1858064516129c0.37161290322581-1.9045161290323,0.97548387096775-3.8090322580645,1.858064516129-5.5277419354839c0.1858064516129-0.32516129032258,0.37161290322581-0.69677419354839,0.65032258064516-0.88258064516129c-2.6477419354839,5.5741935483871-2.7406451612903,12.402580645161-1.44,18.441290322581c0.23225806451613-0.41806451612903,0.27870967741936-0.88258064516129,0.1858064516129-1.3935483870968c-0.55741935483871-3.4374193548387-0.60387096774194-7.0141935483871-0.1858064516129-10.451612903226c0.23225806451613-1.7651612903226,0.65032258064516-3.4838709677419,1.1612903225806-5.1561290322581c0.13935483870968-0.46451612903226,0.32516129032258-1.0683870967742,0.60387096774194-1.5793548387097l0.23225806451613,0c0.046451612903226,0,0.13935483870968,0.046451612903226,0.1858064516129,0.092903225806452c0.1858064516129,0.32516129032258,0.32516129032258,0.69677419354839,0.46451612903226,1.021935483871c0.32516129032258,0.78967741935484,0.60387096774194,1.6258064516129,0.88258064516129,2.461935483871z M244.52129032258,48.867096774194c0.69677419354839-2.0438709677419,0.65032258064516-4.1806451612903,0.60387096774194-6.363870967742c0-2.88-0.13935483870968-5.8529032258065-0.69677419354839-8.64l0-0.092903225806452c-0.32516129032258,1.1148387096774-0.51096774193549,2.1367741935484-0.65032258064516,3.1122580645161c-0.41806451612903,3.4374193548387-0.37161290322581,6.8283870967742,0.1858064516129,9.9870967741936c0.13935483870968,0.83612903225807,0.046451612903226,1.6722580645161-0.32516129032258,2.3225806451613l-0.69677419354839,1.44c0.046451612903226,0.046451612903226,0.13935483870968,0.046451612903226,0.23225806451613,0.046451612903226s0.23225806451613,0,0.32516129032258-0.046451612903226c0.046451612903226-0.046451612903226,0.23225806451613-0.092903225806452,0.46451612903226-0.41806451612903c0.1858064516129-0.46451612903226,0.37161290322581-0.88258064516129,0.55741935483871-1.3470967741936z M253.11483870968,35.628387096774c0.51096774193549,3.298064516129,0.65032258064516,6.2245161290323,0.37161290322581,9.0116129032258c-0.27870967741936,2.88-0.78967741935484,5.8529032258065-2.461935483871,8.2683870967742c-0.32516129032258,0.46451612903226-0.65032258064516,0.88258064516129-1.021935483871,1.2541935483871c-0.1858064516129,0.37161290322581-0.37161290322581,0.69677419354839-0.60387096774194,1.021935483871c-0.60387096774194,0.88258064516129-1.2541935483871,1.5793548387097-1.9509677419355,2.1832258064516c-1.1612903225806,1.1148387096774-2.5548387096774,1.8116129032258-4.0412903225807,1.9974193548387c-0.27870967741936,0.046451612903226-0.60387096774194,0.092903225806452-0.92903225806452,0.092903225806452c-0.23225806451613,0-0.51096774193549-0.046451612903226-0.74322580645162-0.046451612903226c-0.27870967741936,0.046451612903226-0.55741935483871,0.046451612903226-0.88258064516129,0.046451612903226c-1.5793548387097,0-3.298064516129-0.65032258064516-4.5987096774194-1.7187096774194c-2.1367741935484-1.8116129032258-3.4838709677419-4.5058064516129-4.0877419354839-8.2683870967742c-1.021935483871-6.5496774193549,0.092903225806452-13.052903225807,3.2051612903226-18.255483870968c0.55741935483871-1.3470967741936,1.2541935483871-2.5548387096774,2.0438709677419-3.5767741935484c0.092903225806452-0.1858064516129,0.23225806451613-0.27870967741936,0.37161290322581-0.37161290322581c0.37161290322581-0.69677419354839,0.78967741935484-1.3470967741936,1.2541935483871-1.9045161290323c0.27870967741936-0.41806451612903,0.74322580645162-0.60387096774194,1.2077419354839-0.60387096774194c0.23225806451613,0,0.46451612903226,0.046451612903226,0.69677419354839,0.13935483870968c0.41806451612903-0.27870967741936,0.83612903225807-0.46451612903226,1.3006451612903-0.55741935483871c0.74322580645162-0.27870967741936,1.4864516129032-0.46451612903226,2.1367741935484-0.46451612903226c0.32516129032258-0.046451612903226,0.65032258064516-0.046451612903226,0.92903225806452-0.046451612903226c0.74322580645162,0,1.3935483870968,0.13935483870968,1.9509677419355,0.46451612903226c0.60387096774194,0.37161290322581,1.0683870967742,0.92903225806452,1.4864516129032,1.5329032258065c0.65032258064516,0.13935483870968,1.2077419354839,0.55741935483871,1.5329032258065,1.1612903225806c0.65032258064516,1.2541935483871,1.3470967741936,2.6941935483871,1.858064516129,4.1806451612903c0.37161290322581,1.2541935483871,0.69677419354839,2.6941935483871,0.97548387096775,4.4593548387097z M252,44.50064516129c0.32516129032258-2.9264516129032,0.13935483870968-5.8064516129032-0.32516129032258-8.6864516129033c-0.23225806451613-1.3935483870968-0.51096774193549-2.8335483870968-0.92903225806452-4.2270967741936c-0.46451612903226-1.3470967741936-1.1148387096774-2.6477419354839-1.7651612903226-3.901935483871c-0.23225806451613-0.41806451612903-0.69677419354839-0.51096774193549-1.0683870967742-0.37161290322581c-0.32516129032258-0.60387096774194-0.78967741935484-1.3935483870968-1.3935483870968-1.7651612903226c-0.55741935483871-0.32516129032258-1.3470967741936-0.32516129032258-1.9974193548387-0.1858064516129c-0.60387096774194-0.046451612903226-1.2077419354839,0.13935483870968-1.8116129032258,0.37161290322581c-1.4864516129032,0.32516129032258-2.6012903225807,1.7651612903226-3.3909677419355,3.4838709677419c-0.092903225806452,0-0.23225806451613-0.046451612903226-0.37161290322581,0c0.1858064516129-0.51096774193549,0.37161290322581-1.021935483871,0.60387096774194-1.5329032258065c0.1858064516129-0.46451612903226,0.46451612903226-0.92903225806452,0.74322580645162-1.3935483870968c0.046451612903226-0.092903225806452-0.046451612903226-0.13935483870968-0.092903225806452-0.046451612903226c-0.78967741935484,1.021935483871-1.3935483870968,2.1367741935484-1.858064516129,3.3445161290323c-0.046451612903226,0.046451612903226-0.046451612903226,0.092903225806452-0.092903225806452,0.092903225806452c-3.1122580645161,5.2025806451613-3.9483870967742,11.334193548387-3.0193548387097,17.28c0.46451612903226,2.7406451612903,1.3935483870968,5.5277419354839,3.5767741935484,7.3858064516129c1.2541935483871,1.021935483871,2.9729032258065,1.5793548387097,4.5058064516129,1.3006451612903c0.51096774193549,0.046451612903226,1.021935483871,0.046451612903226,1.5329032258065,0c1.3006451612903-0.1858064516129,2.3690322580645-0.78967741935484,3.2516129032258-1.6722580645161c0.65032258064516-0.55741935483871,1.2077419354839-1.2077419354839,1.7187096774194-1.9045161290323c1.5329032258065-2.1832258064516,1.9509677419355-5.0167741935484,2.1832258064516-7.5716129032258z"></path></svg>
<!--?xml version="1.0"?-->
<svg width="250.63203341463px" height="19.39px" id="s1481820011896"><path fill="#222222" d="M4.11282,9.39c-0.0688569639,0-0.11579748-0.0438230361-0.14084061-0.13146l-1.00473-2.9109l-1.00473,2.9109c-0.0250430361,0.0876369639-0.0688660722,0.13146-0.13146939,0.13146l-0.92961,0c-0.0312969639,0-0.0578989278-0.014085-0.0798057978-0.042255s-0.0359919639-0.0579080361-0.042255-0.089205l-0.49767-6.2913c0-0.0876369639,0.0438230361-0.13146,0.13146-0.13146l0.86388,0c0.0876369639,0,0.13146,0.0438230361,0.13146,0.13146l0.26292,3.96258l0.7512-1.95312c0.0312969639-0.0876369639,0.0876369639-0.13146,0.16902-0.13146l0.7512,0c0.0876369639,0,0.14710374,0.0438230361,0.17840061,0.13146l0.7512,1.95312l0.26292-3.96258c0-0.0876369639,0.0438230361-0.13146,0.13146-0.13146l0.86388,0c0.0312969639,0,0.061035,0.0125169639,0.089205,0.03756s0.042255,0.05634,0.042255,0.0939l-0.50706,6.2913c0,0.0312969639-0.0109580361,0.061035-0.032865,0.089205s-0.051645,0.042255-0.089205,0.042255l-0.92022,0z M8.588987195122,9.39c-0.0876369639,0-0.13146-0.0438230361-0.13146-0.13146l0-6.2913c0-0.0876369639,0.0438230361-0.13146,0.13146-0.13146l3.40857,0c0.0876369639,0,0.13146,0.0438230361,0.13146,0.13146l0,0.86388c0,0.0312969639-0.0125169639,0.061035-0.03756,0.089205s-0.05634,0.042255-0.0939,0.042255l-2.41323,0l0,1.58691l1.90617,0c0.0312969639,0,0.061035,0.0125169639,0.089205,0.03756s0.042255,0.05634,0.042255,0.0939l0,0.86388c0,0.03756-0.014085,0.0688569639-0.042255,0.0939s-0.0579080361,0.03756-0.089205,0.03756l-1.90617,0l0,1.58691l2.41323,0c0.0876369639,0,0.13146,0.0438230361,0.13146,0.13146l0,0.86388c0,0.0876369639-0.0438230361,0.13146-0.13146,0.13146l-3.40857,0z  M19.278471585366,9.39c-0.0876369639,0-0.13146-0.0438230361-0.13146-0.13146l0-6.2913c0-0.0876369639,0.0438230361-0.13146,0.13146-0.13146l3.40857,0c0.0876369639,0,0.13146,0.0438230361,0.13146,0.13146l0,0.86388c0,0.0312969639-0.0125169639,0.061035-0.03756,0.089205s-0.05634,0.042255-0.0939,0.042255l-2.41323,0l0,1.58691l1.90617,0c0.0312969639,0,0.061035,0.0125169639,0.089205,0.03756s0.042255,0.05634,0.042255,0.0939l0,0.86388c0,0.03756-0.014085,0.0688569639-0.042255,0.0939s-0.0579080361,0.03756-0.089205,0.03756l-1.90617,0l0,1.58691l2.41323,0c0.0876369639,0,0.13146,0.0438230361,0.13146,0.13146l0,0.86388c0,0.0876369639-0.0438230361,0.13146-0.13146,0.13146l-3.40857,0z M29.811188780488,9.39c-0.0876369639,0-0.13146-0.0438230361-0.13146-0.13146l-0.05634-3.1926l-0.95778,3.1926c-0.0125169639,0.0312969639-0.0359919639,0.061035-0.070425,0.089205s-0.070425,0.042255-0.107985,0.042255l-0.7512,0c-0.0438230361,0-0.0813830361-0.0156530361-0.11268-0.04695s-0.0532039278-0.06573-0.0657207978-0.10329l-0.95778-3.17382l-0.04695,3.1926c0,0.0876369639-0.0438230361,0.13146-0.13146,0.13146l-0.86388,0c-0.0876369639,0-0.13146-0.0438230361-0.13146-0.13146l0.25353-6.2913c0-0.0312969639,0.0109580361-0.061035,0.032865-0.089205s0.0485089278-0.042255,0.0798057978-0.042255l0.92961,0c0.0688569639,0,0.11580687,0.0438230361,0.14085,0.13146l1.24887,4.6011l1.25826-4.6011c0.0250430361-0.0876369639,0.0719930361-0.13146,0.14085-0.13146l0.92022,0c0.0312969639,0,0.0594669639,0.014085,0.08451,0.042255s0.03756,0.0579080361,0.03756,0.089205l0.25353,6.2913c0,0.03756-0.014085,0.0688569639-0.042255,0.0939s-0.0579080361,0.03756-0.089205,0.03756l-0.86388,0z M33.80846597561,9.39c-0.0876369639,0-0.13146-0.0438230361-0.13146-0.13146l0-6.2913c0-0.0876369639,0.0438230361-0.13146,0.13146-0.13146l2.98602,0c0.0438230361,0,0.08451,0.004695,0.12207,0.014085s0.0782469639,0.0359919639,0.12207,0.079815l0.52584,0.52584c0.0500769639,0.05634,0.079815,0.10485813,0.089205,0.145545s0.014085,0.0735519639,0.014085,0.098595l0,2.41323c0,0.0939-0.0344330361,0.17528313-0.10329,0.24414l-0.52584,0.52584c-0.0312969639,0.0312969639-0.06573,0.05634-0.10329,0.07512s-0.08451,0.02817-0.14085,0.02817l-1.99068,0l0,2.27238c0,0.0876369639-0.0438230361,0.13146-0.13146,0.13146l-0.86388,0z M36.51278597561,5.67156c0.0125169639-0.0125169639,0.01878-0.0250430361,0.01878-0.03756l0-1.44606c0-0.01878-0.00626305488-0.0344330361-0.01878-0.04695l-0.16902-0.15963c-0.0125169639-0.0125169639-0.02817-0.01878-0.04695-0.01878l-1.49301,0l0,1.88739l1.49301,0c0.0250430361,0,0.0438230361-0.00626305488,0.05634-0.01878z M44.068873170732,9.2961c-0.0626030361,0.0626030361-0.16902,0.09390939-0.31926,0.09390939l-2.37567,0c-0.01878,0-0.0485180361-0.004695-0.089205-0.014085s-0.0829419639-0.0359919639-0.126765-0.079815l-0.53523-0.53523c-0.0438230361-0.0438230361-0.070425-0.0860780361-0.079815-0.126765s-0.014085-0.070425-0.014085-0.089205l0-4.86402c0-0.0250430361,0.004695-0.0579080361,0.014085-0.098595s0.0359919639-0.0829419639,0.079815-0.126765l0.53523-0.52584c0.03756-0.03756,0.0735519639-0.0626030361,0.107985-0.07512s0.079815-0.01878,0.136155-0.01878l2.42262,0c0.03756,0,0.0782469639,0.00626305488,0.12207,0.01878s0.08451,0.03756,0.12207,0.07512l0.52584,0.52584c0.0312969639,0.0312969639,0.05634,0.0672889278,0.07512,0.10797561s0.02817,0.0860689278,0.02817,0.13614561l0,4.81707c0,0.0626030361-0.00939,0.11112126-0.02817,0.14555439s-0.0438230361,0.0672980361-0.07512,0.098595z M43.543033170732,8.13174939c0.01878-0.01878,0.0281607978-0.0406960722,0.0281607978-0.0657392022l0-3.85929c0-0.00626305488-0.00156805488-0.0156530361-0.004695-0.02817s-0.0109489278-0.0250339278-0.0234657978-0.0375507978l-0.15963-0.15024c-0.01878-0.01878-0.03756-0.02817-0.05634-0.02817l-1.41789,0c-0.0250430361,0-0.04695,0.00939-0.06573,0.02817l-0.15963,0.15024c-0.01878,0.01878-0.02817,0.0406869639-0.02817,0.06573l0,3.85929c0,0.0250430361,0.00939,0.04695,0.02817,0.06573l0.13146,0.13146l1.5963,0z M51.286920365854,9.39c-0.0688569639,0-0.11579748-0.0438230361-0.14084061-0.13146l-1.00473-2.9109l-1.00473,2.9109c-0.0250430361,0.0876369639-0.0688660722,0.13146-0.13146939,0.13146l-0.92961,0c-0.0312969639,0-0.0578989278-0.014085-0.0798057978-0.042255s-0.0359919639-0.0579080361-0.042255-0.089205l-0.49767-6.2913c0-0.0876369639,0.0438230361-0.13146,0.13146-0.13146l0.86388,0c0.0876369639,0,0.13146,0.0438230361,0.13146,0.13146l0.26292,3.96258l0.7512-1.95312c0.0312969639-0.0876369639,0.0876369639-0.13146,0.16902-0.13146l0.7512,0c0.0876369639,0,0.14710374,0.0438230361,0.17840061,0.13146l0.7512,1.95312l0.26292-3.96258c0-0.0876369639,0.0438230361-0.13146,0.13146-0.13146l0.86388,0c0.0312969639,0,0.061035,0.0125169639,0.089205,0.03756s0.042255,0.05634,0.042255,0.0939l-0.50706,6.2913c0,0.0312969639-0.0109580361,0.061035-0.032865,0.089205s-0.051645,0.042255-0.089205,0.042255l-0.92022,0z M55.763087560976,9.39c-0.0876369639,0-0.13146-0.0438230361-0.13146-0.13146l0-6.2913c0-0.0876369639,0.0438230361-0.13146,0.13146-0.13146l3.40857,0c0.0876369639,0,0.13146,0.0438230361,0.13146,0.13146l0,0.86388c0,0.0312969639-0.0125169639,0.061035-0.03756,0.089205s-0.05634,0.042255-0.0939,0.042255l-2.41323,0l0,1.58691l1.90617,0c0.0312969639,0,0.061035,0.0125169639,0.089205,0.03756s0.042255,0.05634,0.042255,0.0939l0,0.86388c0,0.03756-0.014085,0.0688569639-0.042255,0.0939s-0.0579080361,0.03756-0.089205,0.03756l-1.90617,0l0,1.58691l2.41323,0c0.0876369639,0,0.13146,0.0438230361,0.13146,0.13146l0,0.86388c0,0.0876369639-0.0438230361,0.13146-0.13146,0.13146l-3.40857,0z M65.338024756098,9.39c-0.03756,0-0.0719930361-0.014085-0.10329-0.042255s-0.0532039278-0.0579080361-0.0657207978-0.089205l-0.92961-2.28177l-1.05168,0l0,2.28177c0,0.0876369639-0.0438230361,0.13146-0.13146,0.13146l-0.86388,0c-0.0876369639,0-0.13146-0.0438230361-0.13146-0.13146l0-6.2913c0-0.0876369639,0.0438230361-0.13146,0.13146-0.13146l2.98602,0c0.0250430361,0,0.0500860722,0.00312694512,0.0751292022,0.00939s0.051645,0.014085,0.079815,0.023475s0.0579080361,0.0297380361,0.089205,0.061035l0.52584,0.52584c0.0500769639,0.0500769639,0.0813739278,0.10641687,0.0938907978,0.16902c0.00626305488,0.0250430361,0.00939,0.0500860722,0.00939,0.0751292022l0,2.38506c0,0.11268-0.0344330361,0.20345313-0.10329,0.27231l-0.55401,0.55401l0.94839,2.33811c0.0125169639,0.0312969639,0.0109489278,0.0625939278-0.00470417403,0.0938907978s-0.051645,0.04695-0.107985,0.04695l-0.89205,0z M64.887304756098,5.67156c0.01878-0.01878,0.0281607978-0.0406869639,0.0281607978-0.06573l0-1.41789c0-0.01878-0.00626305488-0.0344330361-0.01878-0.04695l-0.15963-0.15024c-0.0312969639-0.01878-0.0532039278-0.02817-0.0657207978-0.02817l-1.48362,0l0,1.88739l1.48362,0c0.0250430361,0,0.04695-0.00939,0.06573-0.02817z  M74.496939146342,9.39c-0.0312969639,0-0.0579080361-0.0109672383-0.079815-0.0328742022s-0.032865-0.0485089278-0.032865-0.0798057978l0-5.31474l-1.3146,0c-0.0876369639,0-0.13146-0.0438230361-0.13146-0.13146l0-0.86388c0-0.0876369639,0.0438230361-0.13146,0.13146-0.13146l3.76539,0c0.0312969639,0,0.061035,0.0125169639,0.089205,0.03756s0.042255,0.05634,0.042255,0.0939l0,0.86388c0,0.03756-0.014085,0.0688569639-0.042255,0.0939s-0.0579080361,0.03756-0.089205,0.03756l-1.32399,0l0,5.31474c0,0.07512-0.0344330361,0.11268-0.10329,0.11268l-0.91083,0z M82.841786341464,9.39c-0.0876369639,0-0.13146-0.0438230361-0.13146-0.13146l0-2.58225l-1.91556,0l0,2.58225c0,0.0876369639-0.0438230361,0.13146-0.13146,0.13146l-0.86388,0c-0.0876369639,0-0.13146-0.0438230361-0.13146-0.13146l0-6.2913c0-0.0876369639,0.0438230361-0.13146,0.13146-0.13146l0.86388,0c0.0876369639,0,0.13146,0.0438230361,0.13146,0.13146l0,2.58225l1.91556,0l0-2.58225c0-0.0876369639,0.0438230361-0.13146,0.13146-0.13146l0.86388,0c0.0876369639,0,0.13146,0.0438230361,0.13146,0.13146l0,6.2913c0,0.0876369639-0.0438230361,0.13146-0.13146,0.13146l-0.86388,0z M86.989303536586,9.39c-0.0876369639,0-0.13146-0.0438230361-0.13146-0.13146l0-6.2913c0-0.0876369639,0.0438230361-0.13146,0.13146-0.13146l3.40857,0c0.0876369639,0,0.13146,0.0438230361,0.13146,0.13146l0,0.86388c0,0.0312969639-0.0125169639,0.061035-0.03756,0.089205s-0.05634,0.042255-0.0939,0.042255l-2.41323,0l0,1.58691l1.90617,0c0.0312969639,0,0.061035,0.0125169639,0.089205,0.03756s0.042255,0.05634,0.042255,0.0939l0,0.86388c0,0.03756-0.014085,0.0688569639-0.042255,0.0939s-0.0579080361,0.03756-0.089205,0.03756l-1.90617,0l0,1.58691l2.41323,0c0.0876369639,0,0.13146,0.0438230361,0.13146,0.13146l0,0.86388c0,0.0876369639-0.0438230361,0.13146-0.13146,0.13146l-3.40857,0z  M101.78221792683,9.39c-0.0876369639,0-0.13146-0.0438230361-0.13146-0.13146l-0.05634-3.1926l-0.95778,3.1926c-0.0125169639,0.0312969639-0.0359919639,0.061035-0.070425,0.089205s-0.070425,0.042255-0.107985,0.042255l-0.7512,0c-0.0438230361,0-0.0813830361-0.0156530361-0.11268-0.04695s-0.0532039278-0.06573-0.0657207978-0.10329l-0.95778-3.17382l-0.04695,3.1926c0,0.0876369639-0.0438230361,0.13146-0.13146,0.13146l-0.86388,0c-0.0876369639,0-0.13146-0.0438230361-0.13146-0.13146l0.25353-6.2913c0-0.0312969639,0.0109580361-0.061035,0.032865-0.089205s0.0485089278-0.042255,0.0798057978-0.042255l0.92961,0c0.0688569639,0,0.11580687,0.0438230361,0.14085,0.13146l1.24887,4.6011l1.25826-4.6011c0.0250430361-0.0876369639,0.0719930361-0.13146,0.14085-0.13146l0.92022,0c0.0312969639,0,0.0594669639,0.014085,0.08451,0.042255s0.03756,0.0579080361,0.03756,0.089205l0.25353,6.2913c0,0.03756-0.014085,0.0688569639-0.042255,0.0939s-0.0579080361,0.03756-0.089205,0.03756l-0.86388,0z M109.36647512195,9.39c-0.03756,0-0.0735427617-0.0140942022-0.10797561-0.0422642022s-0.0579080361-0.061035-0.070425-0.098595l-0.36621-1.25826l-2.09397,0l-0.36621,1.25826c-0.0125169639,0.03756-0.0359919639,0.070425-0.070425,0.098595s-0.070425,0.042255-0.107985,0.042255l-0.81693,0c-0.03756,0-0.0735519639-0.014085-0.107985-0.042255s-0.0453910722-0.061035-0.0328742022-0.098595l1.85922-6.28191c0.0125169639-0.0312969639,0.02817-0.0625939278,0.04695-0.0938907978s0.04695-0.04695,0.08451-0.04695l1.10802,0c0.0626030361,0,0.10955313,0.0438230361,0.14085,0.13146l1.84983,6.2913c0.0125169639,0.03756,0.00312694512,0.070425-0.02817,0.098595s-0.06573,0.042255-0.10329,0.042255l-0.81693,0z M107.77018451195,4.45085061l-0.70425,2.39445l1.41789,0z M116.10563231707,9.39c-0.03756,0-0.0735794766-0.014085-0.108012231-0.042255s-0.0579080361-0.0579080361-0.070425-0.089205l-1.24887-2.80761l-0.63852,0.89205l0,1.91556c0,0.0876369639-0.0438230361,0.13146-0.13146,0.13146l-0.86388,0c-0.0876369639,0-0.13146-0.0438230361-0.13146-0.13146l0-6.2913c0-0.0876369639,0.0438230361-0.13146,0.13146-0.13146l0.86388,0c0.0876369639,0,0.13146,0.0438230361,0.13146,0.13146l0,2.42262l1.64325-2.42262c0.0250430361-0.03756,0.0500860722-0.0688569639,0.0751292022-0.0939s0.05634-0.03756,0.0939-0.03756l1.16436,0c0.0626030361,0,0.11112126,0.0172119639,0.14555439,0.051645s0.032865,0.0766880361-0.004695,0.126765l-1.73715,2.41323l1.77471,3.74661c0.0250430361,0.05634,0.0313060722,0.10641687,0.0187892022,0.15024s-0.0500769639,0.06573-0.11268,0.06573l-0.99534,0z M119.9244995122,9.39c-0.0876369639,0-0.13146-0.0438230361-0.13146-0.13146l0-6.2913c0-0.0876369639,0.0438230361-0.13146,0.13146-0.13146l3.40857,0c0.0876369639,0,0.13146,0.0438230361,0.13146,0.13146l0,0.86388c0,0.0312969639-0.0125169639,0.061035-0.03756,0.089205s-0.05634,0.042255-0.0939,0.042255l-2.41323,0l0,1.58691l1.90617,0c0.0312969639,0,0.061035,0.0125169639,0.089205,0.03756s0.042255,0.05634,0.042255,0.0939l0,0.86388c0,0.03756-0.014085,0.0688569639-0.042255,0.0939s-0.0579080361,0.03756-0.089205,0.03756l-1.90617,0l0,1.58691l2.41323,0c0.0876369639,0,0.13146,0.0438230361,0.13146,0.13146l0,0.86388c0,0.0876369639-0.0438230361,0.13146-0.13146,0.13146l-3.40857,0z M129.49943670732,9.39c-0.03756,0-0.0719930361-0.014085-0.10329-0.042255s-0.0532039278-0.0579080361-0.0657207978-0.089205l-0.92961-2.28177l-1.05168,0l0,2.28177c0,0.0876369639-0.0438230361,0.13146-0.13146,0.13146l-0.86388,0c-0.0876369639,0-0.13146-0.0438230361-0.13146-0.13146l0-6.2913c0-0.0876369639,0.0438230361-0.13146,0.13146-0.13146l2.98602,0c0.0250430361,0,0.0500860722,0.00312694512,0.0751292022,0.00939s0.051645,0.014085,0.079815,0.023475s0.0579080361,0.0297380361,0.089205,0.061035l0.52584,0.52584c0.0500769639,0.0500769639,0.0813739278,0.10641687,0.0938907978,0.16902c0.00626305488,0.0250430361,0.00939,0.0500860722,0.00939,0.0751292022l0,2.38506c0,0.11268-0.0344330361,0.20345313-0.10329,0.27231l-0.55401,0.55401l0.94839,2.33811c0.0125169639,0.0312969639,0.0109489278,0.0625939278-0.00470417403,0.0938907978s-0.051645,0.04695-0.107985,0.04695l-0.89205,0z M129.04871670732,5.67156c0.01878-0.01878,0.0281607978-0.0406869639,0.0281607978-0.06573l0-1.41789c0-0.01878-0.00626305488-0.0344330361-0.01878-0.04695l-0.15963-0.15024c-0.0312969639-0.01878-0.0532039278-0.02817-0.0657207978-0.02817l-1.48362,0l0,1.88739l1.48362,0c0.0250430361,0,0.04695-0.00939,0.06573-0.02817z  M140.91195109756,9.2961c-0.0312969639,0.0312969639-0.0626122383,0.0547810722-0.09390939,0.0704342022s-0.0813739278,0.023475-0.15023061,0.023475l-2.45079,0c-0.03756,0-0.0719930361-0.004695-0.10329-0.014085s-0.0688569639-0.0359919639-0.11268-0.079815l-0.53523-0.53523c-0.03756-0.03756-0.0626030361-0.0735519639-0.07512-0.107985s-0.01878-0.070425-0.01878-0.107985l0-4.84524c0-0.10016313,0.0312969639-0.18154626,0.0939-0.24414939l0.53523-0.52584c0.03756-0.03756,0.0766880361-0.0626030361,0.117375-0.07512s0.0829419639-0.01878,0.126765-0.01878l2.42262,0c0.0500769639,0,0.0939,0.00626305488,0.13146,0.01878s0.07512,0.03756,0.11268,0.07512l0.52584,0.52584c0.03756,0.03756,0.0641619639,0.070425,0.079815,0.098595s0.023475,0.0766880361,0.023475,0.145545l0,1.00473c0,0.0876369639-0.0438230361,0.13146-0.13146,0.13146l-0.86388,0c-0.0876369639,0-0.13146-0.0438230361-0.13146-0.13146l0-0.49767c0-0.0250430361-0.00939-0.04695-0.02817-0.06573l-0.15963-0.15024c-0.0312969639-0.01878-0.0500769639-0.02817-0.05634-0.02817l-1.4085,0c-0.0312969639,0-0.05634,0.00939-0.07512,0.02817l-0.15963,0.15024c-0.01878,0.01878-0.02817,0.0406869639-0.02817,0.06573l0,3.84051c0,0.03756,0.00939,0.06573,0.02817,0.08451l0.13146,0.13146l1.5963,0l0.13146-0.13146c0.01878-0.01878,0.02817-0.0406869639,0.02817-0.06573l0-0.52584c0-0.03756,0.0125169639-0.070425,0.03756-0.098595s0.05634-0.042255,0.0939-0.042255l0.86388,0c0.03756,0,0.0688569639,0.014085,0.0939,0.042255s0.03756,0.061035,0.03756,0.098595l0,0.99534c0,0.0438230361-0.00626305488,0.0813830361-0.01878,0.11268s-0.0406869639,0.0688569639-0.08451,0.11268z M147.90463829268,9.2961c-0.0626030361,0.0626030361-0.16902,0.09390939-0.31926,0.09390939l-2.37567,0c-0.01878,0-0.0485180361-0.004695-0.089205-0.014085s-0.0829419639-0.0359919639-0.126765-0.079815l-0.53523-0.53523c-0.0438230361-0.0438230361-0.070425-0.0860780361-0.079815-0.126765s-0.014085-0.070425-0.014085-0.089205l0-4.86402c0-0.0250430361,0.004695-0.0579080361,0.014085-0.098595s0.0359919639-0.0829419639,0.079815-0.126765l0.53523-0.52584c0.03756-0.03756,0.0735519639-0.0626030361,0.107985-0.07512s0.079815-0.01878,0.136155-0.01878l2.42262,0c0.03756,0,0.0782469639,0.00626305488,0.12207,0.01878s0.08451,0.03756,0.12207,0.07512l0.52584,0.52584c0.0312969639,0.0312969639,0.05634,0.0672889278,0.07512,0.10797561s0.02817,0.0860689278,0.02817,0.13614561l0,4.81707c0,0.0626030361-0.00939,0.11112126-0.02817,0.14555439s-0.0438230361,0.0672980361-0.07512,0.098595z M147.37879829268,8.13174939c0.01878-0.01878,0.0281607978-0.0406960722,0.0281607978-0.0657392022l0-3.85929c0-0.00626305488-0.00156805488-0.0156530361-0.004695-0.02817s-0.0109489278-0.0250339278-0.0234657978-0.0375507978l-0.15963-0.15024c-0.01878-0.01878-0.03756-0.02817-0.05634-0.02817l-1.41789,0c-0.0250430361,0-0.04695,0.00939-0.06573,0.02817l-0.15963,0.15024c-0.01878,0.01878-0.02817,0.0406869639-0.02817,0.06573l0,3.85929c0,0.0250430361,0.00939,0.04695,0.02817,0.06573l0.13146,0.13146l1.5963,0z M155.75181548781,9.39c-0.0876369639,0-0.13146-0.0438230361-0.13146-0.13146l-0.05634-3.1926l-0.95778,3.1926c-0.0125169639,0.0312969639-0.0359919639,0.061035-0.070425,0.089205s-0.070425,0.042255-0.107985,0.042255l-0.7512,0c-0.0438230361,0-0.0813830361-0.0156530361-0.11268-0.04695s-0.0532039278-0.06573-0.0657207978-0.10329l-0.95778-3.17382l-0.04695,3.1926c0,0.0876369639-0.0438230361,0.13146-0.13146,0.13146l-0.86388,0c-0.0876369639,0-0.13146-0.0438230361-0.13146-0.13146l0.25353-6.2913c0-0.0312969639,0.0109580361-0.061035,0.032865-0.089205s0.0485089278-0.042255,0.0798057978-0.042255l0.92961,0c0.0688569639,0,0.11580687,0.0438230361,0.14085,0.13146l1.24887,4.6011l1.25826-4.6011c0.0250430361-0.0876369639,0.0719930361-0.13146,0.14085-0.13146l0.92022,0c0.0312969639,0,0.0594669639,0.014085,0.08451,0.042255s0.03756,0.0579080361,0.03756,0.089205l0.25353,6.2913c0,0.03756-0.014085,0.0688569639-0.042255,0.0939s-0.0579080361,0.03756-0.089205,0.03756l-0.86388,0z M163.85252268293,9.39c-0.0876369639,0-0.13146-0.0438230361-0.13146-0.13146l-0.05634-3.1926l-0.95778,3.1926c-0.0125169639,0.0312969639-0.0359919639,0.061035-0.070425,0.089205s-0.070425,0.042255-0.107985,0.042255l-0.7512,0c-0.0438230361,0-0.0813830361-0.0156530361-0.11268-0.04695s-0.0532039278-0.06573-0.0657207978-0.10329l-0.95778-3.17382l-0.04695,3.1926c0,0.0876369639-0.0438230361,0.13146-0.13146,0.13146l-0.86388,0c-0.0876369639,0-0.13146-0.0438230361-0.13146-0.13146l0.25353-6.2913c0-0.0312969639,0.0109580361-0.061035,0.032865-0.089205s0.0485089278-0.042255,0.0798057978-0.042255l0.92961,0c0.0688569639,0,0.11580687,0.0438230361,0.14085,0.13146l1.24887,4.6011l1.25826-4.6011c0.0250430361-0.0876369639,0.0719930361-0.13146,0.14085-0.13146l0.92022,0c0.0312969639,0,0.0594669639,0.014085,0.08451,0.042255s0.03756,0.0579080361,0.03756,0.089205l0.25353,6.2913c0,0.03756-0.014085,0.0688569639-0.042255,0.0939s-0.0579080361,0.03756-0.089205,0.03756l-0.86388,0z M171.22080987805,9.2961c-0.0312969639,0.0312969639-0.0688477617,0.0547719639-0.11267061,0.070425s-0.0876460722,0.023475-0.13146939,0.023475l-2.42262,0c-0.03756,0-0.079815-0.00782194512-0.126765-0.023475s-0.0860780361-0.0391280361-0.117375-0.070425l-0.53523-0.53523c-0.0500769639-0.0500769639-0.0782469639-0.0939-0.08451-0.13146s-0.00939-0.07512-0.00939-0.11268l0-5.54949c0-0.0876369639,0.0438230361-0.13146,0.13146-0.13146l0.86388,0c0.0876369639,0,0.13146,0.0438230361,0.13146,0.13146l0,5.09877c0,0.0250430361,0.00939,0.04695,0.02817,0.06573l0.13146,0.13146l1.5963,0l0.13146-0.13146c0.01878-0.01878,0.02817-0.0406869639,0.02817-0.06573l0-5.09877c0-0.0876369639,0.0438230361-0.13146,0.13146-0.13146l0.86388,0c0.0312969639,0,0.061035,0.0125169639,0.089205,0.03756s0.042255,0.05634,0.042255,0.0939l0,5.54949c0,0.0312969639-0.00782194512,0.070425-0.023475,0.117375s-0.042255,0.089205-0.079815,0.126765z M177.79094707317,9.39c-0.03756,0-0.0735519639-0.014085-0.107985-0.042255s-0.0579080361-0.0579080361-0.070425-0.089205l-1.64325-4.05648l0,4.05648c0,0.0876369639-0.0438230361,0.13146-0.13146,0.13146l-0.86388,0c-0.0876369639,0-0.13146-0.0438230361-0.13146-0.13146l0-6.2913c0-0.0876369639,0.0438230361-0.13146,0.13146-0.13146l1.14558,0c0.0626030361,0,0.10955313,0.0438230361,0.14085,0.13146l1.45545,3.76539l0.05634,0.26292l0-4.02831c0-0.0876369639,0.0438230361-0.13146,0.13146-0.13146l0.86388,0c0.0876369639,0,0.13146,0.0438230361,0.13146,0.13146l0,6.2913c0,0.0876369639-0.0438230361,0.13146-0.13146,0.13146l-0.97656,0z M182.05114426829,9.39c-0.0876369639,0-0.13146-0.0438230361-0.13146-0.13146l0-6.2913c0-0.0876369639,0.0438230361-0.13146,0.13146-0.13146l0.86388,0c0.0876369639,0,0.13146,0.0438230361,0.13146,0.13146l0,6.2913c0,0.0876369639-0.0438230361,0.13146-0.13146,0.13146l-0.86388,0z M187.30668146342,9.39c-0.0312969639,0-0.0579080361-0.0109672383-0.079815-0.0328742022s-0.032865-0.0485089278-0.032865-0.0798057978l0-5.31474l-1.3146,0c-0.0876369639,0-0.13146-0.0438230361-0.13146-0.13146l0-0.86388c0-0.0876369639,0.0438230361-0.13146,0.13146-0.13146l3.76539,0c0.0312969639,0,0.061035,0.0125169639,0.089205,0.03756s0.042255,0.05634,0.042255,0.0939l0,0.86388c0,0.03756-0.014085,0.0688569639-0.042255,0.0939s-0.0579080361,0.03756-0.089205,0.03756l-1.32399,0l0,5.31474c0,0.07512-0.0344330361,0.11268-0.10329,0.11268l-0.91083,0z M193.99888865854,9.39c-0.0688569639,0-0.10329-0.0438230361-0.10329-0.13146l0-2.89212l-1.86861-3.3804c-0.0250430361-0.03756-0.01878-0.0719930361,0.01878-0.10329s0.07512-0.04695,0.11268-0.04695l0.94839,0c0.03756,0,0.0719930361,0.014085,0.10329,0.042255s0.05634,0.0579080361,0.07512,0.089205l1.17375,2.35689l1.17375-2.35689c0.01878-0.0312969639,0.0438230361-0.061035,0.07512-0.089205s0.06573-0.042255,0.10329-0.042255l0.94839,0c0.03756,0,0.07512,0.0156530361,0.11268,0.04695s0.0438230361,0.06573,0.01878,0.10329l-1.86861,3.3804l0,2.89212c0,0.0876369639-0.03756,0.13146-0.11268,0.13146l-0.91083,0z  M203.85266304878,9.39c-0.0876369639,0-0.13146-0.0438230361-0.13146-0.13146l0-6.2913c0-0.0876369639,0.0438230361-0.13146,0.13146-0.13146l0.86388,0c0.0876369639,0,0.13146,0.0438230361,0.13146,0.13146l0,6.2913c0,0.0876369639-0.0438230361,0.13146-0.13146,0.13146l-0.86388,0z M210.8171802439,9.39c-0.03756,0-0.0735519639-0.014085-0.107985-0.042255s-0.0579080361-0.0579080361-0.070425-0.089205l-1.64325-4.05648l0,4.05648c0,0.0876369639-0.0438230361,0.13146-0.13146,0.13146l-0.86388,0c-0.0876369639,0-0.13146-0.0438230361-0.13146-0.13146l0-6.2913c0-0.0876369639,0.0438230361-0.13146,0.13146-0.13146l1.14558,0c0.0626030361,0,0.10955313,0.0438230361,0.14085,0.13146l1.45545,3.76539l0.05634,0.26292l0-4.02831c0-0.0876369639,0.0438230361-0.13146,0.13146-0.13146l0.86388,0c0.0876369639,0,0.13146,0.0438230361,0.13146,0.13146l0,6.2913c0,0.0876369639-0.0438230361,0.13146-0.13146,0.13146l-0.97656,0z  M219.33757463415,9.39c-0.0876369639,0-0.13146-0.0438230361-0.13146-0.13146l0-6.2913c0-0.0876369639,0.0438230361-0.13146,0.13146-0.13146l0.86388,0c0.0876369639,0,0.13146,0.0438230361,0.13146,0.13146l0,6.2913c0,0.0876369639-0.0438230361,0.13146-0.13146,0.13146l-0.86388,0z M226.85610182927,9.2961c-0.0626030361,0.0626030361-0.16902,0.09390939-0.31926,0.09390939l-2.37567,0c-0.01878,0-0.0485180361-0.004695-0.089205-0.014085s-0.0829419639-0.0359919639-0.126765-0.079815l-0.53523-0.53523c-0.0438230361-0.0438230361-0.070425-0.0860780361-0.079815-0.126765s-0.014085-0.070425-0.014085-0.089205l0-4.86402c0-0.0250430361,0.004695-0.0579080361,0.014085-0.098595s0.0359919639-0.0829419639,0.079815-0.126765l0.53523-0.52584c0.03756-0.03756,0.0735519639-0.0626030361,0.107985-0.07512s0.079815-0.01878,0.136155-0.01878l2.42262,0c0.03756,0,0.0782469639,0.00626305488,0.12207,0.01878s0.08451,0.03756,0.12207,0.07512l0.52584,0.52584c0.0312969639,0.0312969639,0.05634,0.0672889278,0.07512,0.10797561s0.02817,0.0860689278,0.02817,0.13614561l0,4.81707c0,0.0626030361-0.00939,0.11112126-0.02817,0.14555439s-0.0438230361,0.0672980361-0.07512,0.098595z M226.33026182927,8.13174939c0.01878-0.01878,0.0281607978-0.0406960722,0.0281607978-0.0657392022l0-3.85929c0-0.00626305488-0.00156805488-0.0156530361-0.004695-0.02817s-0.0109489278-0.0250339278-0.0234657978-0.0375507978l-0.15963-0.15024c-0.01878-0.01878-0.03756-0.02817-0.05634-0.02817l-1.41789,0c-0.0250430361,0-0.04695,0.00939-0.06573,0.02817l-0.15963,0.15024c-0.01878,0.01878-0.02817,0.0406869639-0.02817,0.06573l0,3.85929c0,0.0250430361,0.00939,0.04695,0.02817,0.06573l0.13146,0.13146l1.5963,0z M231.70786902439,9.39c-0.0312969639,0-0.0579080361-0.0109672383-0.079815-0.0328742022s-0.032865-0.0485089278-0.032865-0.0798057978l0-5.31474l-1.3146,0c-0.0876369639,0-0.13146-0.0438230361-0.13146-0.13146l0-0.86388c0-0.0876369639,0.0438230361-0.13146,0.13146-0.13146l3.76539,0c0.0312969639,0,0.061035,0.0125169639,0.089205,0.03756s0.042255,0.05634,0.042255,0.0939l0,0.86388c0,0.03756-0.014085,0.0688569639-0.042255,0.0939s-0.0579080361,0.03756-0.089205,0.03756l-1.32399,0l0,5.31474c0,0.07512-0.0344330361,0.11268-0.10329,0.11268l-0.91083,0z "></path></svg>
</defs><use id="SvgjsUse1038" xlink:href="#t1481820011896" fill="#222222" x="53.39612573385239" y="86.93496680259705"></use><use id="SvgjsUse1039" xlink:href="#s1481820011896" fill="#222222" y="154.68148064613342" x="63.05213928222656"></use></svg>